<svg width="48" height="48" viewBox="0 0 48 48" fill="none" xmlns="http://www.w3.org/2000/svg">
<path fill-rule="evenodd" clip-rule="evenodd" d="M23.9998 0C25.7491 0.00055622 27.4589 0.519782 28.9131 1.49203C30.3673 2.46427 31.5006 3.84587 32.1696 5.46215C32.8387 7.07842 33.0134 8.85678 32.6718 10.5724C32.3302 12.288 31.4876 13.8638 30.2505 15.1005C29.0134 16.3372 27.4374 17.1794 25.7217 17.5205C24.006 17.8616 22.2277 17.6863 20.6116 17.0167C18.9955 16.3472 17.6143 15.2135 16.6424 13.7591C15.6706 12.3046 15.1519 10.5946 15.1519 8.84531C15.1537 6.4995 16.0866 4.25033 17.7456 2.59183C19.4046 0.933339 21.654 0.00114208 23.9998 0ZM24.4217 44.3328C24.2932 44.2595 24.1478 44.2209 23.9998 44.2209C23.8519 44.2209 23.7065 44.2595 23.5779 44.3328L17.078 48L18.5569 40.6849C18.5864 40.5391 18.5776 40.3882 18.5312 40.2468C18.4849 40.1055 18.4027 39.9786 18.2926 39.8786L12.7988 34.8311L20.2135 33.978C20.3606 33.9613 20.5008 33.9065 20.6202 33.8191C20.7396 33.7316 20.8342 33.6146 20.8945 33.4794L23.9998 26.6918L27.105 33.4793C27.1654 33.6145 27.2599 33.7315 27.3794 33.819C27.4988 33.9064 27.6389 33.9612 27.786 33.9779L35.2007 34.831L29.7069 39.8785C29.5968 39.9785 29.5146 40.1054 29.4683 40.2467C29.422 40.3881 29.4131 40.539 29.4427 40.6848L30.9216 48L24.4217 44.3328ZM14.7301 19.9781C12.4846 19.9802 10.3317 20.8729 8.74349 22.4603C7.1553 24.0476 6.26156 26.2002 6.2583 28.4456V39.0139C6.25828 39.0979 6.27483 39.1811 6.30702 39.2587C6.33921 39.3363 6.3864 39.4068 6.44588 39.4662C6.50537 39.5255 6.57597 39.5725 6.65366 39.6045C6.73135 39.6365 6.81459 39.6529 6.89862 39.6527H15.4975L10.2427 34.8252C10.1205 34.7138 10.033 34.5696 9.99068 34.4098C9.94832 34.25 9.95287 34.0814 10.0038 33.9241C10.0547 33.7668 10.1498 33.6276 10.2778 33.5229C10.4058 33.4183 10.5612 33.3527 10.7255 33.334L19.5326 32.3215L23.217 24.2603C23.2852 24.1099 23.3953 23.9823 23.5341 23.8928C23.673 23.8033 23.8346 23.7557 23.9998 23.7557C24.165 23.7557 24.3267 23.8033 24.4655 23.8928C24.6043 23.9823 24.7144 24.1099 24.7826 24.2603L28.467 32.3215L37.2743 33.334C37.4385 33.3527 37.5939 33.4183 37.7218 33.523C37.8498 33.6276 37.9449 33.7669 37.9958 33.9242C38.0467 34.0814 38.0513 34.25 38.009 34.4098C37.9666 34.5696 37.8792 34.7138 37.7571 34.8252L32.5022 39.6527H41.101C41.2705 39.6523 41.4329 39.5849 41.5528 39.4652C41.6728 39.3455 41.7405 39.1833 41.7413 39.0139V28.4456C41.7381 26.2002 40.8443 24.0476 39.2562 22.4603C37.668 20.8729 35.515 19.9802 33.2695 19.9781H14.7301Z" fill="url(#paint0_linear_41_1961)"/>
<defs>
<linearGradient id="paint0_linear_41_1961" x1="23.9998" y1="0" x2="23.9998" y2="48" gradientUnits="userSpaceOnUse">
<stop stop-color="#6DCAFF"/>
<stop offset="1" stop-color="#0094FF"/>
</linearGradient>
</defs>
</svg>
