<svg width="48" height="48" viewBox="0 0 48 48" fill="none" xmlns="http://www.w3.org/2000/svg">
<path d="M27.75 6.75H25.5V1.5H22.5V6.75H20.25L24 10.5L27.75 6.75Z" fill="url(#paint0_linear_41_1990)"/>
<path d="M25.5 46.5V41.25H27.75L24 37.5L20.25 41.25H22.5V46.5H25.5Z" fill="url(#paint1_linear_41_1990)"/>
<path d="M37.5 24L41.25 27.75V25.5H46.5V22.5H41.25V20.25L37.5 24Z" fill="url(#paint2_linear_41_1990)"/>
<path d="M6.75 27.75L10.5 24L6.75 20.25V22.5H1.5V25.5H6.75V27.75Z" fill="url(#paint3_linear_41_1990)"/>
<path d="M37.2599 12.8624L40.9724 9.14984L38.8499 7.02734L35.1374 10.7399L33.5474 9.14984V14.4524H38.8499L37.2599 12.8624Z" fill="url(#paint4_linear_41_1990)"/>
<path d="M9.14984 40.9724L12.8623 37.2599L14.4523 38.8499V33.5474H9.14984L10.7398 35.1374L7.02734 38.8499L9.14984 40.9724Z" fill="url(#paint5_linear_41_1990)"/>
<path d="M37.2599 35.1374L38.8499 33.5474H33.5474V38.8499L35.1374 37.2599L38.8499 40.9724L40.9724 38.8499L37.2599 35.1374Z" fill="url(#paint6_linear_41_1990)"/>
<path d="M9.14984 14.4524H14.4523V9.14984L12.8623 10.7399L9.14984 7.02734L7.02734 9.14984L10.7398 12.8624L9.14984 14.4524Z" fill="url(#paint7_linear_41_1990)"/>
<path d="M24 33.75C29.385 33.75 33.75 29.385 33.75 24C33.75 18.615 29.385 14.25 24 14.25C18.615 14.25 14.25 18.615 14.25 24C14.25 29.385 18.615 33.75 24 33.75ZM19.5 26.25C19.5 24.5925 20.8425 23.25 22.5 23.25H24C22.4475 23.25 21.1875 21.99 21.1875 20.4375C21.1875 18.885 22.4475 17.625 24 17.625C25.5525 17.625 26.8125 18.885 26.8125 20.4375C26.8125 21.99 25.5525 23.25 24 23.25H25.5C27.1575 23.25 28.5 24.5925 28.5 26.25V29.9925C27.2475 30.9375 25.6875 31.5 24 31.5C22.3125 31.5 20.7525 30.9375 19.5 29.9925V26.25Z" fill="url(#paint8_linear_41_1990)"/>
<defs>
<linearGradient id="paint0_linear_41_1990" x1="24" y1="1.5" x2="24" y2="10.5" gradientUnits="userSpaceOnUse">
<stop stop-color="#6DCAFF"/>
<stop offset="1" stop-color="#0094FF"/>
</linearGradient>
<linearGradient id="paint1_linear_41_1990" x1="24" y1="37.5" x2="24" y2="46.5" gradientUnits="userSpaceOnUse">
<stop stop-color="#6DCAFF"/>
<stop offset="1" stop-color="#0094FF"/>
</linearGradient>
<linearGradient id="paint2_linear_41_1990" x1="42" y1="20.25" x2="42" y2="27.75" gradientUnits="userSpaceOnUse">
<stop stop-color="#6DCAFF"/>
<stop offset="1" stop-color="#0094FF"/>
</linearGradient>
<linearGradient id="paint3_linear_41_1990" x1="6" y1="20.25" x2="6" y2="27.75" gradientUnits="userSpaceOnUse">
<stop stop-color="#6DCAFF"/>
<stop offset="1" stop-color="#0094FF"/>
</linearGradient>
<linearGradient id="paint4_linear_41_1990" x1="37.2599" y1="7.02734" x2="37.2599" y2="14.4524" gradientUnits="userSpaceOnUse">
<stop stop-color="#6DCAFF"/>
<stop offset="1" stop-color="#0094FF"/>
</linearGradient>
<linearGradient id="paint5_linear_41_1990" x1="10.7398" y1="33.5474" x2="10.7398" y2="40.9724" gradientUnits="userSpaceOnUse">
<stop stop-color="#6DCAFF"/>
<stop offset="1" stop-color="#0094FF"/>
</linearGradient>
<linearGradient id="paint6_linear_41_1990" x1="37.2599" y1="33.5474" x2="37.2599" y2="40.9724" gradientUnits="userSpaceOnUse">
<stop stop-color="#6DCAFF"/>
<stop offset="1" stop-color="#0094FF"/>
</linearGradient>
<linearGradient id="paint7_linear_41_1990" x1="10.7398" y1="7.02734" x2="10.7398" y2="14.4524" gradientUnits="userSpaceOnUse">
<stop stop-color="#6DCAFF"/>
<stop offset="1" stop-color="#0094FF"/>
</linearGradient>
<linearGradient id="paint8_linear_41_1990" x1="24" y1="14.25" x2="24" y2="33.75" gradientUnits="userSpaceOnUse">
<stop stop-color="#6DCAFF"/>
<stop offset="1" stop-color="#0094FF"/>
</linearGradient>
</defs>
</svg>
