<svg width="48" height="48" viewBox="0 0 48 48" fill="none" xmlns="http://www.w3.org/2000/svg">
<path fill-rule="evenodd" clip-rule="evenodd" d="M30.9206 24.6737L32.7203 28.5393C32.7907 28.6905 33.0018 28.7001 33.0856 28.5559L34.6797 25.8126L37.8052 26.3587C37.9698 26.3874 38.0982 26.22 38.0277 26.0685L35.7866 21.2549C35.6743 21.3168 35.5964 21.3931 35.5177 21.5134L34.5638 22.972C33.7546 24.2091 32.345 24.8474 30.9206 24.6737ZM15.0897 30.332C16.5653 29.4771 18.0658 28.8709 19.6877 29.397C21.496 29.9835 24.4488 31.2427 27.4602 31.7858C28.578 32.1481 29.2748 33.2674 28.9707 34.4023C28.7303 35.2996 27.8896 36.1026 26.9161 35.8446L21.9151 34.5195C21.5154 34.4143 21.1062 34.653 21.001 35.0527C20.8958 35.4524 21.1346 35.8616 21.5343 35.9668L26.5353 37.2919C27.8117 37.6302 29.0167 37.1256 29.6534 35.9771C30.0355 35.8681 30.4093 35.7088 30.7769 35.4947L38.3363 31.0918C44.2125 27.6694 45.0756 32.9344 43.1218 34.1373L29.4034 42.5846C28.1417 43.3613 26.761 43.5426 25.3297 43.159L15.3793 40.4927L14.5798 40.9543L10.1785 33.1774L15.0897 30.332ZM8.14026 32.6214C7.83876 32.0886 7.15617 31.8994 6.62348 32.201L4.50248 33.4014C3.9697 33.7029 3.78051 34.3855 4.08201 34.9182L10.3176 45.936C10.6191 46.4688 11.3016 46.658 11.8343 46.3564L13.9553 45.156C14.4881 44.8545 14.6773 44.172 14.3758 43.6393L8.14026 32.6214ZM6.58579 34.0527C6.9996 33.9921 7.38417 34.2786 7.44464 34.6924C7.5051 35.1062 7.2187 35.4908 6.80489 35.5513C6.39107 35.6118 6.00651 35.3253 5.94604 34.9115C5.88548 34.4977 6.17198 34.1132 6.58579 34.0527ZM28.362 6.42708C25.0899 6.42708 22.4376 9.07936 22.4376 12.3514C22.4376 15.6235 25.0899 18.2758 28.362 18.2758C31.6341 18.2758 34.2863 15.6235 34.2863 12.3514C34.2863 9.07936 31.6341 6.42708 28.362 6.42708ZM27.4854 12.9401L30.7309 9.66239C31.1151 9.27436 31.7418 9.27323 32.1286 9.65798C32.5154 10.0426 32.5166 10.6676 32.1329 11.0549C30.8169 12.3831 29.5098 13.7201 28.1876 15.0422C27.8011 15.4288 27.1742 15.4288 26.7876 15.0422L24.5942 12.8488C24.2076 12.4622 24.2076 11.8353 24.5942 11.4488C24.9807 11.0623 25.6077 11.0623 25.9942 11.4488L27.4854 12.9401ZM29.7498 1.96898L31.145 3.01336C31.5265 3.29902 31.9282 3.44517 32.4041 3.47161L34.1442 3.56836C35.1861 3.6263 36.0324 4.33636 36.2704 5.35242L36.6679 7.0493C36.7766 7.51336 36.9903 7.88358 37.3378 8.20973L38.6086 9.40242C39.3695 10.1165 39.5613 11.2045 39.0906 12.1358L38.3044 13.6912C38.0893 14.1165 38.0152 14.5375 38.0717 15.0107L38.2785 16.7413C38.4023 17.7774 37.85 18.7341 36.8907 19.1449L35.2886 19.831C34.8505 20.0187 34.5231 20.2934 34.2621 20.6923L33.3082 22.1508C32.7371 23.0242 31.699 23.402 30.7001 23.1001L29.0318 22.596C28.5756 22.458 28.1481 22.458 27.6919 22.596L26.0236 23.1001C25.0247 23.402 23.9866 23.0242 23.4155 22.1508L22.4616 20.6923C22.2006 20.2934 21.8733 20.0187 21.4351 19.831L19.833 19.1449C18.8737 18.7341 18.3214 17.7774 18.4452 16.7413L18.652 15.0107C18.7086 14.5375 18.6344 14.1165 18.4193 13.6912L17.6331 12.1358C17.1623 11.2045 17.3541 10.1166 18.115 9.40242L19.3858 8.20973C19.7333 7.88358 19.947 7.51336 20.0557 7.0493L20.4532 5.35242C20.6913 4.33636 21.5375 3.6263 22.5794 3.56836L24.3195 3.47161C24.7954 3.44517 25.1971 3.29892 25.5786 3.01336L26.9739 1.96898C27.8097 1.34367 28.9144 1.34367 29.7498 1.96898ZM28.362 4.92708C32.4621 4.92708 35.7863 8.25117 35.7863 12.3514C35.7863 16.4517 32.4622 19.7758 28.362 19.7758C24.2617 19.7758 20.9376 16.4517 20.9376 12.3514C20.9376 8.25117 24.2618 4.92708 28.362 4.92708ZM25.8035 24.6736C24.379 24.8473 22.9695 24.209 22.1602 22.9718L21.2063 21.5132C21.1277 21.393 21.0499 21.3166 20.9375 21.2547L18.6963 26.0684C18.6258 26.2198 18.7541 26.3872 18.9187 26.3585L22.0444 25.8124L23.6385 28.5557C23.7223 28.6999 23.9332 28.6904 24.0037 28.5391L25.8035 24.6736Z" fill="url(#paint0_linear_41_1988)"/>
<defs>
<linearGradient id="paint0_linear_41_1988" x1="23.9999" y1="1.5" x2="23.9999" y2="46.5" gradientUnits="userSpaceOnUse">
<stop stop-color="#6DCAFF"/>
<stop offset="1" stop-color="#0094FF"/>
</linearGradient>
</defs>
</svg>
