<svg width="48" height="48" viewBox="0 0 48 48" fill="none" xmlns="http://www.w3.org/2000/svg">
<path d="M34.987 13.6027C40.1749 13.4391 40.1728 5.91135 34.9869 5.75342C29.801 5.91717 29.8014 13.4348 34.987 13.6027Z" fill="url(#paint0_linear_41_1983)"/>
<path d="M13.0151 16.7395C7.82725 16.9031 7.82935 24.4309 13.0152 24.5888C18.2011 24.4251 18.2008 16.9074 13.0151 16.7395Z" fill="url(#paint1_linear_41_1983)"/>
<path d="M29.4943 30.4795C24.3084 30.6432 24.3088 38.1609 29.4943 38.3288C34.6821 38.1652 34.6801 30.6374 29.4943 30.4795Z" fill="url(#paint2_linear_41_1983)"/>
<path d="M41.6324 21.82C41.0355 21.8254 40.4506 21.9887 39.9372 22.2934C39.4238 22.598 39.0002 23.0332 38.7095 23.5546C38.4187 24.0759 38.2712 24.665 38.2818 25.2619C38.2924 25.8587 38.4609 26.4422 38.77 26.9529L35.3756 30.0175C34.4355 29.1435 33.3152 28.4861 32.0936 28.0918L33.8545 20.1865C35.0739 20.3426 36.3125 20.2379 37.4885 19.8795C38.6644 19.5211 39.7508 18.9172 40.6759 18.1075C41.601 17.2979 42.3436 16.3011 42.8547 15.183C43.3658 14.065 43.6336 12.8511 43.6406 11.6218C43.4907 2.24036 30.9171 -0.314785 27.0807 8.13L22.7796 6.66135C22.7871 6.55643 22.8095 6.45152 22.8095 6.34665C22.6747 1.89571 16.2006 1.87321 16.0507 6.34665C16.0573 7.07984 16.3022 7.791 16.7484 8.37276C17.1947 8.95453 17.8181 9.37531 18.5246 9.5716C19.231 9.76789 19.9822 9.72901 20.6646 9.46085C21.347 9.19269 21.9237 8.70979 22.3075 8.08507L26.6011 9.5537C26.1678 11.296 26.291 13.1302 26.9533 14.7989L20.3743 18.0884C19.4431 16.574 18.0686 15.3828 16.4372 14.6763C14.8059 13.9699 12.9966 13.7825 11.2551 14.1395L9.89888 9.6436C10.4193 9.35297 10.8532 8.9292 11.1561 8.4157C11.4589 7.90221 11.6198 7.31744 11.6223 6.7213C11.4874 2.27035 5.00586 2.24785 4.86349 6.7213C4.86222 7.18308 4.95626 7.64017 5.13973 8.06395C5.32319 8.48773 5.59213 8.86909 5.92973 9.18417C6.26732 9.49926 6.6663 9.74129 7.10171 9.89513C7.53713 10.049 7.9996 10.1113 8.4602 10.0782L9.81646 14.5741C3.20797 17.1332 2.41802 26.5217 8.6776 30.0625L7.05145 33.5169C2.1959 32.7526 1.43909 39.9535 6.36956 40.2008C7.07132 40.1946 7.75373 39.9699 8.32193 39.558C8.89013 39.1461 9.3159 38.5674 9.54005 37.9024C9.7642 37.2374 9.77561 36.519 9.57267 35.8472C9.36974 35.1754 8.96256 34.5835 8.40772 34.1538L10.0262 30.7219C11.5805 31.2918 13.2659 31.4026 14.8814 31.0413C16.497 30.6799 17.9745 29.8615 19.1379 28.6838L22.4049 31.4113C21.7062 32.4142 21.2281 33.5538 21.0021 34.755C20.7761 35.9562 20.8073 37.1917 21.0936 38.3799L16.2006 40.0284C15.8436 39.3704 15.2779 38.8499 14.5926 38.5487C13.9072 38.2475 13.1412 38.1828 12.4151 38.3648C11.6889 38.5467 11.0439 38.965 10.5816 39.5538C10.1193 40.1426 9.86595 40.8684 9.86141 41.617C10.0037 46.1578 16.6726 46.0304 16.6052 41.482L21.5732 39.8035C22.4655 41.8156 24.0875 43.4146 26.1121 44.2782C28.1367 45.1417 30.4134 45.2056 32.4832 44.4569C37.8184 42.651 39.924 35.525 36.3797 31.134L39.819 28.0319C40.359 28.3823 40.9886 28.5696 41.6324 28.5714C46.0833 28.4365 46.1058 21.9624 41.6324 21.82ZM34.9859 4.47336C36.2036 4.48146 37.3993 4.79936 38.4602 5.39711C39.5212 5.99485 40.4125 6.85279 41.0504 7.89013C41.6882 8.92747 42.0516 10.1101 42.1062 11.3266C42.1608 12.5431 41.9049 13.7535 41.3626 14.8439C41.1175 14.4325 40.7922 14.0745 40.406 13.7913C40.0199 13.5081 39.5807 13.3055 39.1146 13.1954C38.6003 13.7849 37.9658 14.2574 37.2536 14.5811C36.5415 14.9049 35.7682 15.0724 34.9859 15.0724C34.2036 15.0724 33.4304 14.9049 32.7182 14.5811C32.0061 14.2574 31.3715 13.7849 30.8572 13.1954C30.3926 13.3066 29.955 13.5098 29.5702 13.7929C29.1853 14.076 28.8612 14.4334 28.6167 14.8439C28.0744 13.7541 27.8183 12.5443 27.8725 11.3283C27.9267 10.1123 28.2893 8.93011 28.9263 7.8929C29.5634 6.85569 30.4538 5.99761 31.5139 5.39939C32.5739 4.80118 33.7687 4.48251 34.9859 4.47336ZM17.5269 24.3077L17.1447 24.1804C16.6304 24.7698 15.9958 25.2423 15.2837 25.5661C14.5715 25.8899 13.7983 26.0574 13.016 26.0574C12.2337 26.0574 11.4605 25.8899 10.7483 25.5661C10.0361 25.2423 9.4016 24.7698 8.88729 24.1804C8.42123 24.2904 7.98206 24.4931 7.59588 24.7763C7.20971 25.0595 6.88442 25.4174 6.63935 25.8289C4.17996 21.2379 7.78152 15.361 13.0161 15.4584C14.9105 15.4609 16.7265 16.2151 18.0653 17.5554C19.4042 18.8956 20.1565 20.7124 20.157 22.6068C20.1594 23.7269 19.8948 24.8314 19.3852 25.8289C18.9684 25.1153 18.3088 24.5754 17.5269 24.3077ZM20.1045 27.5373C20.9171 26.3681 21.4285 25.0162 21.5932 23.6019C21.7579 22.1875 21.5709 20.7544 21.0486 19.4297L27.6276 16.1402C28.7098 17.9157 30.4011 19.2368 32.3858 19.8568L30.6249 27.7771C30.2498 27.7267 29.8719 27.6992 29.4935 27.6947C28.353 27.6947 27.2239 27.9212 26.1717 28.3611C25.1195 28.8011 24.1652 29.4456 23.3641 30.2573L20.1045 27.5373ZM35.8702 39.5638C35.6236 39.1544 35.2978 38.7983 34.9118 38.5165C34.5257 38.2347 34.0873 38.0329 33.6222 37.9228C33.1079 38.5123 32.4733 38.9848 31.7612 39.3086C31.049 39.6324 30.2758 39.7999 29.4935 39.7999C28.7112 39.7999 27.9379 39.6324 27.2258 39.3086C26.5136 38.9848 25.879 38.5123 25.3647 37.9228C24.9011 38.034 24.4642 38.2364 24.0795 38.5181C23.6949 38.7998 23.3701 39.1553 23.1243 39.5638C20.674 34.978 24.2632 29.0959 29.4935 29.1933C34.7237 29.1034 38.3204 34.978 35.8702 39.5638Z" fill="url(#paint3_linear_41_1983)"/>
<defs>
<linearGradient id="paint0_linear_41_1983" x1="34.9874" y1="5.75342" x2="34.9874" y2="13.6027" gradientUnits="userSpaceOnUse">
<stop stop-color="#6DCAFF"/>
<stop offset="1" stop-color="#0094FF"/>
</linearGradient>
<linearGradient id="paint1_linear_41_1983" x1="13.0147" y1="16.7395" x2="13.0147" y2="24.5888" gradientUnits="userSpaceOnUse">
<stop stop-color="#6DCAFF"/>
<stop offset="1" stop-color="#0094FF"/>
</linearGradient>
<linearGradient id="paint2_linear_41_1983" x1="29.4947" y1="30.4795" x2="29.4947" y2="38.3288" gradientUnits="userSpaceOnUse">
<stop stop-color="#6DCAFF"/>
<stop offset="1" stop-color="#0094FF"/>
</linearGradient>
<linearGradient id="paint3_linear_41_1983" x1="24" y1="3" x2="24" y2="44.9755" gradientUnits="userSpaceOnUse">
<stop stop-color="#6DCAFF"/>
<stop offset="1" stop-color="#0094FF"/>
</linearGradient>
</defs>
</svg>
