<svg width="212" height="44" viewBox="0 0 212 44" fill="none" xmlns="http://www.w3.org/2000/svg">
<g clip-path="url(#clip0_31_70)">
<path d="M23.1666 36.731H13.0315C10.8835 36.731 9.19221 36.5472 7.95544 36.1816C6.69331 35.8287 5.47346 35.1716 4.30013 34.2122C2.86041 33.0015 1.78643 31.4801 1.08032 29.6502C0.359401 27.8076 0 25.6164 0 23.0807C0 18.1193 1.07397 14.4405 3.21981 12.0422C5.34239 9.65652 8.66368 8.46265 13.1837 8.46265H23.1666V14.1235H13.2978C12.1604 14.1235 11.2196 14.2756 10.4755 14.5778C9.72919 14.9307 9.11187 15.4547 8.61928 16.1499C7.65947 17.5382 7.17956 19.9302 7.17956 23.3258C7.17956 26.2165 7.6341 28.2175 8.54317 29.3269C9.41419 30.4383 10.9998 30.992 13.2978 30.992H23.1666V36.7289V36.731Z" fill="white"/>
<path d="M46.4959 36.7311H31.9106C29.8895 36.7311 28.2849 36.188 27.0988 35.1019C25.898 34.0411 25.2997 32.4965 25.2997 30.4638C25.2997 28.0274 25.9593 26.2799 27.2785 25.2192C28.5977 24.1584 30.7351 23.628 33.6907 23.628H40.1303C40.1303 22.618 39.8343 21.8932 39.2402 21.4516C38.6335 21.048 37.4919 20.8452 35.8111 20.8452H26.6232V15.7717H37.8005C40.6419 15.7717 42.8025 16.4289 44.2782 17.7411C45.756 19.0533 46.4938 21.0417 46.4938 23.7062V36.7332L46.4959 36.7311ZM40.1303 31.7316V28.5895H34.4285C33.2911 28.5895 32.5533 28.6994 32.2129 28.9212C31.8725 29.1431 31.7013 29.5995 31.7013 30.2947C31.7013 30.8124 31.8218 31.1906 32.0607 31.4315C32.1875 31.533 32.418 31.609 32.752 31.6597C33.086 31.7105 33.5131 31.7358 34.031 31.7358H40.1303V31.7316Z" fill="white"/>
<path d="M71.2438 26.506C71.2438 27.7421 71.0599 29.0057 70.6941 30.2926C70.4658 30.9751 70.2396 31.5287 70.0113 31.9577C69.747 32.4247 69.4045 32.917 68.988 33.4347C68.117 34.5969 67.0304 35.4484 65.7302 35.9915C64.3919 36.4838 62.7239 36.7289 60.7282 36.7289H56.7304V43.9999H50.536V15.7717H61.0876C64.2566 15.7717 66.7513 16.712 68.5694 18.5926C70.3495 20.4733 71.2396 23.1125 71.2396 26.506H71.2438ZM64.8042 26.0707C64.8042 24.1901 64.4448 22.8842 63.7239 22.151C63.0283 21.3819 61.7345 20.9952 59.8402 20.9952L56.7346 21.0332V31.5034H59.4047C61.3751 31.5034 62.7768 31.0744 63.6097 30.2165C64.0135 29.8383 64.3222 29.3079 64.5378 28.6254C64.7154 27.9556 64.8021 27.104 64.8021 26.0686L64.8042 26.0707Z" fill="white"/>
<path d="M80.3282 14.4447H73.8505V8.46265H80.3282V14.4447ZM80.3282 36.75H73.8505V15.7527H80.3282V36.75Z" fill="white"/>
<path d="M97.7274 36.731H92.4612C90.3893 36.731 88.7995 36.1499 87.6875 34.9898C86.5754 33.853 86.0194 32.1753 86.0194 29.9545V20.6951H82.326V15.7717H86.0194V8.46265H92.2138V15.7717H97.7253V20.6951H92.2138V28.2873C92.2138 29.6502 92.4104 30.5778 92.8015 31.0701C93.2434 31.5371 94.0066 31.7717 95.0932 31.7717H97.7253V36.7331L97.7274 36.731Z" fill="white"/>
<path d="M120.562 36.7311H105.977C103.956 36.7311 102.351 36.188 101.165 35.1019C99.9642 34.0411 99.3659 32.4965 99.3659 30.4638C99.3659 28.0274 100.025 26.2799 101.345 25.2192C102.664 24.1584 104.801 23.628 107.757 23.628H114.196C114.196 22.618 113.9 21.8932 113.306 21.4516C112.7 21.048 111.558 20.8452 109.877 20.8452H100.689V15.7717H111.867C114.708 15.7717 116.869 16.4289 118.344 17.7411C119.822 19.0533 120.56 21.0417 120.56 23.7062V36.7332L120.562 36.7311ZM114.196 31.7316V28.5895H108.495C107.357 28.5895 106.619 28.6994 106.279 28.9212C105.939 29.1431 105.767 29.5995 105.767 30.2947C105.767 30.8124 105.888 31.1906 106.127 31.4315C106.254 31.533 106.484 31.609 106.818 31.6597C107.152 31.7105 107.579 31.7358 108.097 31.7358H114.196V31.7316Z" fill="white"/>
<path d="M130.915 36.75H124.475V8.46265H130.915V36.75Z" fill="white"/>
<path d="M171.887 36.75H164.443L161.961 30.2566H150.898L148.492 36.75H141.35L153.189 8.46265H159.933L171.887 36.75ZM159.707 24.4056L156.335 15.7907L153.115 24.4056H159.707Z" fill="white" fill-opacity="0.5"/>
<path d="M178.884 6.25454L190.495 17.8679L190.762 17.946L203.804 5.0332C203.854 4.96558 203.852 4.90219 203.833 4.82401C203.736 4.42886 202.448 3.57308 202.157 3.12089C202.083 3.00467 202.04 2.93494 202.068 2.78914L211.782 -0.00219727L212 0.12036L209.56 10.2757C209.419 10.3137 209.404 10.2376 209.326 10.1827C208.822 9.83404 208.205 9.03108 207.685 8.63383H207.408L190.762 25.2445L179.026 13.927V35.8795L178.886 36.0189H174.109C173.802 35.4252 174.075 34.599 173.87 33.9165C174.254 25.1748 173.373 16.0126 173.87 7.31951C173.891 6.95818 174.009 6.61376 173.967 6.2482H178.884V6.25454Z" fill="white" fill-opacity="0.5"/>
<path d="M207.501 36.0253H202.584L202.444 35.8858V16.6L207.125 11.9175L207.501 11.6851C207.668 12.0337 207.501 12.3105 207.497 12.6634C207.414 19.89 207.4 27.1652 207.497 34.3919C207.505 34.9413 207.668 35.4674 207.501 36.0253Z" fill="white" fill-opacity="0.5"/>
<path d="M180.992 18.7045C181.1 18.5862 182.087 19.5582 182.214 19.685C182.776 20.2407 183.29 20.8599 183.844 21.424C184.478 22.0685 185.396 22.787 185.958 23.4314C186.077 23.5667 186.153 23.7547 186.216 23.9217L186.148 35.7019L186.003 36.0252H181.132L180.992 35.8857V18.7067V18.7045Z" fill="white" fill-opacity="0.5"/>
<path d="M195.324 23.7148L200.288 18.7512L200.476 18.8463V35.8838L200.334 36.0254H195.463L195.324 35.8838V23.7148Z" fill="white" fill-opacity="0.5"/>
<path d="M193.263 36.0253H188.206V25.9144C188.368 25.8721 188.394 25.982 188.487 26.0538C189.087 26.5187 189.95 27.7506 190.495 28.0718C190.99 28.3634 191.077 27.8647 191.343 27.5985C191.542 27.3977 193.14 25.7347 193.263 25.8214V36.0253Z" fill="white" fill-opacity="0.5"/>
</g>
<defs>
<clipPath id="clip0_31_70">
<rect width="212" height="44" fill="white"/>
</clipPath>
</defs>
</svg>
