<svg width="231" height="48" viewBox="0 0 231 48" fill="none" xmlns="http://www.w3.org/2000/svg">
<g clip-path="url(#clip0_31_19)">
<path d="M25.2428 40.0703H14.1994C11.8589 40.0703 10.016 39.8698 8.66843 39.471C7.29319 39.086 5.96401 38.3691 4.68551 37.3226C3.11677 36.0017 1.94654 34.342 1.17714 32.3458C0.391611 30.3357 0 27.9453 0 25.1791C0 19.7666 1.17023 15.7534 3.50838 13.137C5.82119 10.5345 9.44014 9.2321 14.3652 9.2321H25.2428V15.4076H14.4896C13.2503 15.4076 12.2252 15.5736 11.4143 15.9032C10.6011 16.2881 9.9285 16.8598 9.39176 17.6182C8.34593 19.1327 7.82301 21.7421 7.82301 25.4465C7.82301 28.5999 8.31828 30.7829 9.30883 31.9931C10.2579 33.2056 11.9856 33.8095 14.4896 33.8095H25.2428V40.068V40.0703Z" fill="#007934"/>
<path d="M50.663 40.0703H34.7705C32.5682 40.0703 30.8198 39.4779 29.5275 38.293C28.219 37.1359 27.5671 35.4508 27.5671 33.2333C27.5671 30.5754 28.2859 28.6691 29.7233 27.5119C31.1607 26.3547 33.4897 25.7761 36.7101 25.7761H43.7269C43.7269 24.6743 43.4044 23.8836 42.757 23.4018C42.0959 22.9615 40.852 22.7402 39.0206 22.7402H29.0092V17.2056H41.1883C44.2843 17.2056 46.6386 17.9225 48.2465 19.354C49.8567 20.7855 50.6607 22.9546 50.6607 25.8614V40.0726L50.663 40.0703ZM43.7269 34.6163V31.1886H37.5141C36.2747 31.1886 35.4708 31.3085 35.0999 31.5505C34.729 31.7925 34.5424 32.2905 34.5424 33.0488C34.5424 33.6136 34.6737 34.0262 34.934 34.289C35.0722 34.3997 35.3233 34.4826 35.6873 34.538C36.0513 34.5933 36.5166 34.621 37.081 34.621H43.7269V34.6163Z" fill="#007934"/>
<path d="M77.6289 28.9157C77.6289 30.2642 77.4285 31.6427 77.0299 33.0465C76.7812 33.7911 76.5347 34.3951 76.2859 34.863C75.9979 35.3724 75.6248 35.9095 75.1709 36.4743C74.2219 37.7421 73.0378 38.6711 71.6211 39.2635C70.1629 39.8006 68.3454 40.068 66.1708 40.068H61.8147V48H55.0652V17.2056H66.5624C70.0155 17.2056 72.7337 18.2314 74.7148 20.283C76.6545 22.3345 77.6243 25.2137 77.6243 28.9157H77.6289ZM70.6121 28.4409C70.6121 26.3893 70.2205 24.9647 69.435 24.1648C68.6771 23.3257 67.2673 22.9039 65.2033 22.9039L61.8193 22.9454V34.3674H64.7287C66.8757 34.3674 68.403 33.8994 69.3106 32.9636C69.7506 32.5509 70.0869 31.9723 70.3219 31.2278C70.5154 30.4971 70.6098 29.5681 70.6098 28.4386L70.6121 28.4409Z" fill="#007934"/>
<path d="M87.5274 15.758H80.4692V9.2321H87.5274V15.758ZM87.5274 40.0911H80.4692V17.1848H87.5274V40.0911Z" fill="#007934"/>
<path d="M106.486 40.0703H100.748C98.4902 40.0703 96.7579 39.4364 95.5462 38.1709C94.3346 36.9307 93.7287 35.1004 93.7287 32.6777V22.5766H89.7043V17.2056H93.7287V9.2321H100.478V17.2056H106.484V22.5766H100.478V30.859C100.478 32.3458 100.692 33.3577 101.119 33.8948C101.6 34.4043 102.432 34.6601 103.616 34.6601H106.484V40.0726L106.486 40.0703Z" fill="#007934"/>
<path d="M131.367 40.0703H115.475C113.272 40.0703 111.524 39.4779 110.232 38.293C108.923 37.1359 108.271 35.4508 108.271 33.2333C108.271 30.5754 108.99 28.6691 110.427 27.5119C111.865 26.3547 114.194 25.7761 117.414 25.7761H124.431C124.431 24.6743 124.109 23.8836 123.461 23.4018C122.8 22.9615 121.556 22.7402 119.725 22.7402H109.713V17.2056H121.892C124.989 17.2056 127.343 17.9225 128.951 19.354C130.561 20.7855 131.365 22.9546 131.365 25.8614V40.0726L131.367 40.0703ZM124.431 34.6163V31.1886H118.218C116.979 31.1886 116.175 31.3085 115.804 31.5505C115.433 31.7925 115.247 32.2905 115.247 33.0488C115.247 33.6136 115.378 34.0262 115.638 34.289C115.776 34.3997 116.028 34.4826 116.391 34.538C116.755 34.5933 117.221 34.621 117.785 34.621H124.431V34.6163Z" fill="#007934"/>
<path d="M142.648 40.0911H135.631V9.2321H142.648V40.0911Z" fill="#007934"/>
<path d="M187.292 40.0911H179.181L176.476 33.0073H164.421L161.8 40.0911H154.018L166.919 9.2321H174.267L187.292 40.0911ZM174.021 26.6244L170.346 17.2263L166.838 26.6244H174.021Z" fill="#51317B"/>
<path d="M194.916 6.82322L207.568 19.4923L207.858 19.5776L222.069 5.49085C222.124 5.41709 222.122 5.34793 222.101 5.26264C221.995 4.83158 220.592 3.898 220.274 3.4047C220.194 3.27791 220.148 3.20184 220.178 3.04279L230.763 -0.00230598L231 0.131392L228.342 11.2099C228.187 11.2514 228.171 11.1684 228.086 11.1085C227.538 10.7281 226.865 9.85218 226.298 9.41882H225.997L207.858 27.5395L195.071 15.1932V39.1413L194.919 39.2935H189.713C189.379 38.6457 189.676 37.7444 189.452 36.9999C189.872 27.4635 188.911 17.4684 189.452 7.98502C189.475 7.59084 189.604 7.2151 189.558 6.81631H194.916V6.82322Z" fill="#51317B"/>
<path d="M226.098 39.3004H220.74L220.588 39.1482V18.1092L225.688 13.001L226.098 12.7474C226.28 13.1278 226.098 13.4298 226.093 13.8147C226.003 21.6983 225.987 29.6349 226.093 37.5185C226.103 38.1178 226.28 38.6918 226.098 39.3004Z" fill="#51317B"/>
<path d="M197.213 20.4051C197.331 20.276 198.406 21.3364 198.545 21.4747C199.157 22.081 199.717 22.7564 200.321 23.3718C201.012 24.0749 202.012 24.8587 202.624 25.5617C202.753 25.7093 202.836 25.9144 202.905 26.0965L202.832 38.9477L202.673 39.3004H197.365L197.213 39.1483V20.4074V20.4051Z" fill="#51317B"/>
<path d="M212.829 25.8706L218.238 20.4558L218.443 20.5596V39.1459L218.289 39.3004H212.981L212.829 39.1459V25.8706Z" fill="#51317B"/>
<path d="M210.583 39.3004H205.073V28.2703C205.25 28.2242 205.278 28.344 205.379 28.4224C206.034 28.9296 206.973 30.2735 207.568 30.6238C208.107 30.9419 208.201 30.3979 208.492 30.1075C208.708 29.8885 210.45 28.0743 210.583 28.1689V39.3004Z" fill="#51317B"/>
</g>
<defs>
<clipPath id="clip0_31_19">
<rect width="231" height="48" fill="white"/>
</clipPath>
</defs>
</svg>
