<svg width="96" height="96" viewBox="0 0 96 96" fill="none" xmlns="http://www.w3.org/2000/svg">
<g clip-path="url(#clip0_43_2066)">
<g filter="url(#filter0_d_43_2066)">
<mask id="mask0_43_2066" style="mask-type:luminance" maskUnits="userSpaceOnUse" x="7" y="8" width="81" height="80">
<path d="M7.5 16C7.5 11.5817 11.0817 8 15.5 8H79.5C83.9183 8 87.5 11.5817 87.5 16V80C87.5 84.4183 83.9183 88 79.5 88H15.5C11.0817 88 7.5 84.4183 7.5 80V16Z" fill="white"/>
</mask>
<g mask="url(#mask0_43_2066)">
<mask id="mask1_43_2066" style="mask-type:luminance" maskUnits="userSpaceOnUse" x="8" y="8" width="80" height="80">
<path d="M88 8H8V88H88V8Z" fill="white"/>
</mask>
<g mask="url(#mask1_43_2066)">
<path d="M37.1094 13.2656V9.29688C37.1406 7.64062 39.6094 7.64062 39.625 9.29688V13.2656C39.6094 14.9219 37.1406 14.9219 37.1094 13.2656ZM13.3438 37.0312H9.375C7.71875 37.0625 7.71875 39.5312 9.375 39.5469H13.3438C14.0469 39.5469 14.6094 38.9844 14.6094 38.2812C14.6094 37.5938 14.0469 37.0312 13.3438 37.0312ZM56.9531 21.4844L59.75 18.6875C60.9062 17.5 59.1562 15.75 57.9687 16.9062L55.1719 19.7031C54.0156 20.8906 55.7656 22.6406 56.9531 21.4844ZM19.7812 21.4844C20.9688 22.6406 22.7188 20.8906 21.5625 19.7031L18.7656 16.9062C17.5781 15.75 15.8281 17.5 16.9844 18.6875L19.7812 21.4844ZM87.7969 18.7656L76.7188 54.625C76.5312 55.25 75.8906 55.6094 75.2656 55.4844L67.5312 53.9531L58.9844 62.0625C58.0156 65.5781 58.7031 68.2344 61.125 70.25C62.0938 71.1719 63.1875 72.2188 63.1094 73.9219C63.0469 75.3594 62.2656 76.25 61.6875 76.8906C59.9062 78.5156 61.8594 79.6562 63.5 80.7656C64.8125 81.625 66.1719 82.5156 65.875 83.9688C65.5469 85.6562 63.7187 85.7188 60.9375 85.8281C58.5625 85.9219 55.3125 86.0312 51.2656 86.9375C48.3906 87.6094 45.5938 88.4219 42.6094 87.5781C40.9844 87.1562 38.4219 86.2344 37.4688 84.5156H35.5312C33.0781 84.5156 31.0781 82.5156 31.0781 80.0625V78.125H30.0312C26.0781 78.1719 24.0781 73.1562 26.9375 70.4844C24.7188 68.5 25.3594 64.4062 28.1719 63.2656C28.0781 59.75 26.5625 56.4219 23.8281 53.875C10.3125 41.3125 18.6719 18.3906 37 17.2031C46.6562 16.5938 55.4531 22.5937 58.4844 31.625C67.0469 27.1875 77.4844 21.7344 86 17.2969C86.9688 16.75 88.1562 17.75 87.7969 18.7656ZM30.7031 62.8281H46.0469C46.2344 59.1562 47.6562 55.7188 50.0312 53.1406C49.7031 52.7031 48 50.4531 47.7031 50.0625L29.8125 46.5469C38.3906 42.0938 47.6719 37.25 56.25 32.7812C49.625 12.9687 21.125 16.6719 19.6719 37.5312C19.4375 43 21.5781 48.2812 25.5625 52.0156C28.6875 54.9531 30.5 58.7812 30.7031 62.8281ZM28.0938 67.2812C28.0938 68.3438 28.9687 69.2187 30.0312 69.2187H46.6875C49.25 69.1875 49.2188 65.4062 46.6875 65.3594H30.0312C29 65.3281 28.0781 66.25 28.0938 67.2812ZM46.6875 75.6094C49.2344 75.5469 49.2344 71.8125 46.6875 71.75H30.0312C27.4844 71.8281 27.5 75.5469 30.0469 75.6094C30.0312 75.6094 46.6875 75.6094 46.6875 75.6094ZM41.1875 82C42.25 82 43.125 81.125 43.125 80.0625V78.125H33.6094V80.0625C33.6094 81.125 34.4688 82 35.5469 82H41.1875ZM56.4844 61.6875L51.5781 55.2031C49.7188 57.375 48.6406 60.2344 48.5469 63.2656C51.2812 64.4062 52.0469 68.4688 49.7812 70.5C52.6406 73.1719 50.6406 78.2031 46.6875 78.1406H45.6406V80.0781C45.6406 82.4688 43.75 84.4062 41.375 84.5156C44.3281 86.0156 47.5781 85.3281 50.7188 84.5C56.0781 83.3438 58.9531 83.4688 62.6406 83.25C59.5625 81.4688 56.625 78.6094 59.7969 75.25C60.9531 73.9375 60.8906 73.4844 59.3906 72.0938C56.5 69.7031 55.3281 65.8594 56.4844 61.6875ZM68.1094 37.2344L67.7969 37.4531L50.2344 49.2344L50.5625 49.6719L53.4062 53.4375L57.1719 58.4219L58.6406 50.9531C61.1094 46.8594 65.4844 41.1562 68.1094 37.2344ZM64.5 53.375C64.2344 53.3281 61 52.6875 60.8594 52.6562L59.8594 57.7812L64.5 53.375ZM84.5 20.9062C79.0625 23.7344 70.125 28.3906 64.5781 31.2812C55.7031 35.9062 46.25 40.8125 37.3594 45.4531L48.1562 47.5781L72.3281 31.375C72.6719 31.1719 73.1094 31.1094 73.4844 31.2656C74.2344 31.5156 74.5469 32.5 74.0781 33.1406C70.0469 38.8594 66.0312 44.5937 62.0156 50.3125L62.25 50.3594L74.6562 52.7969L84.5 20.9062ZM19.7812 55.0938L16.9844 57.8906C16.1875 58.6406 16.7969 60.0781 17.875 60.0469C18.2031 60.0469 18.5156 59.9219 18.7656 59.6719L21.5625 56.875C22.0625 56.375 22.0625 55.5781 21.5625 55.0938C21.0781 54.6094 20.2813 54.6094 19.7812 55.0938Z" fill="#0094FF"/>
</g>
</g>
</g>
</g>
<defs>
<filter id="filter0_d_43_2066" x="0.132812" y="0.0546875" width="95.3672" height="95.8843" filterUnits="userSpaceOnUse" color-interpolation-filters="sRGB">
<feFlood flood-opacity="0" result="BackgroundImageFix"/>
<feColorMatrix in="SourceAlpha" type="matrix" values="0 0 0 0 0 0 0 0 0 0 0 0 0 0 0 0 0 0 127 0" result="hardAlpha"/>
<feOffset/>
<feGaussianBlur stdDeviation="4"/>
<feComposite in2="hardAlpha" operator="out"/>
<feColorMatrix type="matrix" values="0 0 0 0 0 0 0 0 0 0 0 0 0 0 0 0 0 0 0.1 0"/>
<feBlend mode="normal" in2="BackgroundImageFix" result="effect1_dropShadow_43_2066"/>
<feBlend mode="normal" in="SourceGraphic" in2="effect1_dropShadow_43_2066" result="shape"/>
</filter>
<clipPath id="clip0_43_2066">
<rect width="96" height="96" fill="white"/>
</clipPath>
</defs>
</svg>
