<svg width="80" height="80" viewBox="0 0 80 80" fill="none" xmlns="http://www.w3.org/2000/svg">
<path d="M51.35 59.9407L45.0412 57.8376C52.8562 52.914 49.35 40.5109 39.9815 40.5188C30.6123 40.518 27.1054 52.9063 34.9224 57.8376L28.6133 59.9407C26.9999 60.4771 25.5966 61.5081 24.6026 62.8875C23.6086 64.2668 23.0745 65.9243 23.0762 67.6245V71.1682C23.0771 72.0184 23.4152 72.8335 24.0164 73.4347C24.6176 74.0359 25.4327 74.374 26.2829 74.3749H53.6804C54.5308 74.3741 55.3461 74.036 55.9475 73.4348C56.5489 72.8336 56.8873 72.0185 56.8884 71.1681V67.6244C56.89 65.924 56.3558 64.2664 55.3615 62.8871C54.3673 61.5077 52.9637 60.4768 51.35 59.9407ZM33.0773 49.923C33.3674 40.7986 46.5972 40.8007 46.8859 49.9232C46.5959 59.0474 33.366 59.0452 33.0773 49.923ZM54.3884 71.1681C54.3881 71.3557 54.3134 71.5355 54.1806 71.668C54.0479 71.8005 53.868 71.8749 53.6804 71.8749H26.2829C26.0955 71.8747 25.9158 71.8002 25.7833 71.6677C25.6508 71.5351 25.5763 71.3555 25.5761 71.1681V67.6244C25.5748 66.449 25.9441 65.303 26.6313 64.3495C27.3185 63.3959 28.2888 62.6831 29.4042 62.3125L36.8212 59.84C38.8735 59.1613 41.0897 59.1613 43.142 59.84L50.559 62.3125C51.6746 62.6831 52.645 63.3958 53.3325 64.3493C54.0199 65.3029 54.3893 66.4488 54.3883 67.6244L54.3884 71.1681Z" fill="#0094FF"/>
<path d="M70.3565 59.2267L65.724 57.6852C67.0575 56.7109 68.0487 55.3399 68.556 53.7682C69.0632 52.1965 69.0605 50.5046 68.5481 48.9346C68.0358 47.3645 67.0401 45.9967 65.7034 45.0267C64.3668 44.0567 62.7576 43.5342 61.1061 43.5339C59.4546 43.5337 57.8453 44.0557 56.5083 45.0252C55.1714 45.9948 54.1753 47.3623 53.6624 48.9322C53.1496 50.5021 53.1463 52.194 53.6531 53.7658C54.1598 55.3377 55.1506 56.7091 56.4838 57.6838C56.3231 57.7269 56.1726 57.8016 56.0411 57.9035C55.9096 58.0054 55.7997 58.1326 55.7179 58.2775C55.6362 58.4224 55.5841 58.5822 55.5648 58.7475C55.5456 58.9128 55.5594 59.0802 55.6057 59.2401C55.6519 59.3999 55.7296 59.549 55.8341 59.6784C55.9386 59.8079 56.0679 59.9152 56.2144 59.9941C56.361 60.073 56.5217 60.1219 56.6874 60.1379C56.853 60.1539 57.0201 60.1367 57.179 60.0873C58.4152 59.5765 59.7287 59.2778 61.0642 59.2039C62.8572 59.0574 67.8102 61.1095 69.563 61.5972C70.418 61.8835 71.1616 62.4312 71.6886 63.1629C72.2156 63.8945 72.4994 64.7733 72.5 65.675V68.5247C72.5005 68.6122 72.4668 68.6964 72.4062 68.7594C72.3456 68.8225 72.2627 68.8593 72.1753 68.8622H60.6372C60.3057 68.8622 59.9878 68.9939 59.7533 69.2283C59.5189 69.4628 59.3872 69.7807 59.3872 70.1122C59.3872 70.4438 59.5189 70.7617 59.7533 70.9961C59.9878 71.2305 60.3057 71.3622 60.6372 71.3622H72.1753C72.9259 71.3596 73.6448 71.0595 74.1743 70.5275C74.7039 69.9956 75.0008 69.2754 75 68.5248V65.675C74.9996 64.2491 74.5511 62.8594 73.7178 61.7022C72.8845 60.5451 71.7087 59.6792 70.3565 59.2267ZM61.1166 56.7047C59.7087 56.6954 58.3616 56.13 57.3688 55.1317C56.3759 54.1334 55.8179 52.7832 55.8164 51.3752C55.8148 49.9673 56.3698 48.6158 57.3604 47.6153C58.351 46.6148 59.6969 46.0464 61.1047 46.0339C62.5126 46.0433 63.8598 46.6087 64.8526 47.607C65.8455 48.6052 66.4035 49.9555 66.405 51.3634C66.4066 52.7714 65.8516 54.1229 64.861 55.1234C63.8704 56.1239 62.5245 56.6923 61.1166 56.7047Z" fill="#0094FF"/>
<path d="M24.375 59.276C24.4274 59.1152 24.4466 58.9455 24.4316 58.7771C24.4166 58.6086 24.3677 58.445 24.2878 58.296C24.2078 58.1469 24.0986 58.0156 23.9665 57.91C23.8345 57.8043 23.6824 57.7265 23.5195 57.6812C24.854 56.7055 25.8457 55.3327 26.3528 53.7593C26.8599 52.1858 26.8563 50.4923 26.3428 48.921C25.8291 47.3497 24.8318 45.9811 23.4933 45.0109C22.1548 44.0407 20.5437 43.5187 18.8906 43.5195C17.2375 43.5203 15.627 44.0439 14.2894 45.0154C12.9519 45.9869 11.9558 47.3565 11.4438 48.9283C10.9317 50.5001 10.9298 52.1936 11.4384 53.7665C11.9471 55.3395 12.9401 56.7113 14.2755 57.6857L9.63868 59.2278C8.2875 59.6809 7.1128 60.5471 6.28046 61.7039C5.44813 62.8607 5.00023 64.2498 5 65.6749V68.5246C4.9992 69.2752 5.29613 69.9955 5.82568 70.5274C6.35522 71.0594 7.07413 71.3595 7.82471 71.3621H19.325C19.6524 71.3559 19.9643 71.2215 20.1937 70.9877C20.423 70.754 20.5515 70.4396 20.5515 70.1121C20.5515 69.7846 20.423 69.4702 20.1936 69.2365C19.9643 69.0028 19.6523 68.8683 19.3249 68.8621H7.82471C7.7373 68.8592 7.65447 68.8224 7.59383 68.7593C7.53319 68.6963 7.49952 68.6121 7.5 68.5247V65.6749C7.50038 64.774 7.78357 63.8959 8.30964 63.1645C8.83571 62.4331 9.57811 61.8853 10.4321 61.5984C12.213 61.1159 17.0876 59.061 18.9109 59.2049C19.7525 59.2097 20.5881 59.3474 21.3868 59.6129L22.7991 60.0749C22.9551 60.126 23.1195 60.1459 23.2831 60.1334C23.4468 60.1209 23.6063 60.0763 23.7527 60.0021C23.899 59.9279 24.0293 59.8256 24.1361 59.701C24.2429 59.5764 24.3241 59.432 24.375 59.276ZM18.908 56.7044C17.5001 56.6954 16.1528 56.1303 15.1598 55.1322C14.1668 54.1341 13.6085 52.784 13.6066 51.376C13.6048 49.9681 14.1595 48.6165 15.1499 47.6158C16.1404 46.6152 17.4862 46.0465 18.894 46.0338C20.3019 46.0428 21.6492 46.608 22.6423 47.606C23.6353 48.6041 24.1936 49.9543 24.1954 51.3622C24.1972 52.7701 23.6425 54.1217 22.6521 55.1224C21.6617 56.1231 20.3159 56.6917 18.908 56.7044Z" fill="#0094FF"/>
<path d="M8.67798 45.1861C8.78105 45.3142 8.90839 45.4207 9.05269 45.4995C9.19698 45.5783 9.35541 45.6279 9.51889 45.6454C9.68238 45.6628 9.8477 45.6479 10.0054 45.6014C10.1631 45.5548 10.3101 45.4777 10.4379 45.3743C10.5657 45.2708 10.6719 45.1432 10.7503 44.9987C10.8287 44.8542 10.8778 44.6957 10.8949 44.5321C10.9119 44.3686 10.8965 44.2033 10.8496 44.0457C10.8027 43.8882 10.7251 43.7414 10.6213 43.6139C9.5329 42.2794 8.54855 40.8633 7.677 39.378C11.0362 33.8248 15.7828 29.2413 21.45 26.0782C27.1172 22.9151 33.51 21.2813 40 21.3373C46.4898 21.2809 52.8825 22.9146 58.5496 26.0776C64.2167 29.2407 68.963 33.8242 72.3218 39.3775C71.449 40.8637 70.4613 42.2793 69.3677 43.6115C69.2636 43.7387 69.1857 43.8852 69.1384 44.0426C69.0911 44.2 69.0752 44.3652 69.0918 44.5287C69.1084 44.6922 69.1571 44.8508 69.2351 44.9955C69.3131 45.1401 69.4189 45.268 69.5464 45.3717C69.6739 45.4754 69.8206 45.553 69.9781 45.5999C70.1356 45.6469 70.3008 45.6623 70.4642 45.6453C70.6277 45.6283 70.7862 45.5792 70.9307 45.5008C71.0752 45.4225 71.2028 45.3164 71.3062 45.1886C72.6662 43.5606 73.8595 41.8003 74.8682 39.9341C74.9549 39.7606 75 39.5693 75 39.3754C75 39.1814 74.9549 38.9901 74.8682 38.8166C71.3442 32.6987 66.2596 27.6257 60.1337 24.1156C54.0078 20.6054 47.0601 18.784 40 18.8373C32.9399 18.784 25.9922 20.6054 19.8663 24.1155C13.7404 27.6256 8.65586 32.6986 5.13184 38.8165C5.04514 38.99 5 39.1813 5 39.3753C5 39.5693 5.04514 39.7606 5.13184 39.9341C6.13771 41.7975 7.32554 43.5567 8.67798 45.1861Z" fill="#0094FF"/>
<path d="M39.9998 32.5C38.4788 32.4978 37.0003 33.0014 35.7968 33.9315C34.5933 34.8616 33.7332 36.1655 33.3519 37.6379C33.2705 37.9586 33.3196 38.2985 33.4883 38.5831C33.657 38.8677 33.9317 39.0738 34.2521 39.1563C34.5725 39.2388 34.9125 39.191 35.1977 39.0233C35.4829 38.8556 35.6901 38.5818 35.7737 38.2617C36.0183 37.3268 36.566 36.4994 37.3311 35.9092C38.0962 35.3189 39.0355 34.9992 40.0018 34.9999C40.9681 35.0007 41.9069 35.322 42.6711 35.9134C43.4352 36.5049 43.9816 37.3331 44.2247 38.2684C44.3058 38.5899 44.5113 38.866 44.7959 39.0359C45.0806 39.2059 45.4211 39.2558 45.7426 39.1747C46.0641 39.0936 46.3402 38.8882 46.5102 38.6035C46.6802 38.3188 46.7301 37.9783 46.649 37.6568C46.2742 36.179 45.4163 34.8688 44.2116 33.9344C43.0069 33.0001 41.5244 32.4952 39.9998 32.5Z" fill="#0094FF"/>
<path d="M40 14.375C40.1642 14.375 40.3267 14.3427 40.4784 14.2799C40.6301 14.2171 40.7679 14.1251 40.884 14.009C41.0001 13.8929 41.0921 13.7551 41.1549 13.6034C41.2177 13.4517 41.25 13.2892 41.25 13.125V6.875C41.25 6.54348 41.1183 6.22554 40.8839 5.99112C40.6495 5.7567 40.3315 5.625 40 5.625C39.6685 5.625 39.3505 5.7567 39.1161 5.99112C38.8817 6.22554 38.75 6.54348 38.75 6.875V13.125C38.75 13.2892 38.7823 13.4517 38.8451 13.6034C38.9079 13.7551 38.9999 13.8929 39.116 14.009C39.2321 14.1251 39.3699 14.2171 39.5216 14.2799C39.6733 14.3427 39.8358 14.375 40 14.375Z" fill="#0094FF"/>
<path d="M17.7501 17.6252C17.9491 17.8904 18.2452 18.0656 18.5734 18.1125C18.9015 18.1593 19.2349 18.0738 19.5 17.8749C19.7652 17.6759 19.9404 17.3798 19.9872 17.0516C20.034 16.7234 19.9486 16.3901 19.7496 16.125L15.9996 11.125C15.8007 10.8598 15.5046 10.6846 15.1764 10.6378C14.8482 10.5909 14.5149 10.6764 14.2498 10.8754C13.9846 11.0743 13.8093 11.3704 13.7625 11.6986C13.7157 12.0268 13.8012 12.3601 14.0001 12.6252L17.7501 17.6252Z" fill="#0094FF"/>
<path d="M61.2482 18.1251C61.4425 18.1255 61.6341 18.0805 61.8079 17.9937C61.9817 17.9069 62.1328 17.7807 62.2492 17.6252L65.9992 12.6252C66.1981 12.3601 66.2836 12.0268 66.2368 11.6986C66.19 11.3704 66.0147 11.0743 65.7496 10.8754C65.4844 10.6764 65.1511 10.5909 64.8229 10.6378C64.4948 10.6846 64.1986 10.8598 63.9997 11.125L60.2497 16.125C60.1106 16.3106 60.0259 16.5313 60.005 16.7623C59.9842 16.9934 60.028 17.2257 60.1317 17.4332C60.2353 17.6408 60.3946 17.8154 60.5918 17.9376C60.7889 18.0598 61.0162 18.1247 61.2482 18.1251Z" fill="#0094FF"/>
<path d="M53.3142 44.0504C53.5906 44.0502 53.8591 43.9584 54.0778 43.7893C54.2965 43.6202 54.4529 43.3834 54.5227 43.116C55.0812 40.9607 55.1516 38.7079 54.7288 36.522C54.306 34.3361 53.4007 32.272 52.0788 30.4805C51.9725 30.3393 51.8376 30.2222 51.6829 30.1366C51.5283 30.0511 51.3574 29.9991 51.1813 29.984C51.0052 29.9689 50.8279 29.9911 50.661 30.0491C50.494 30.1071 50.3412 30.1996 50.2124 30.3205C49.8709 30.6414 49.4186 30.8176 48.9502 30.8125C48.453 30.8119 47.9764 30.6142 47.6249 30.2627C47.2734 29.9112 47.0757 29.4346 47.0752 28.9375C47.0066 28.1872 47.8064 27.6412 47.5744 26.8825C47.5315 26.7123 47.4532 26.553 47.3447 26.4151C47.2361 26.2771 47.0998 26.1635 46.9445 26.0817C44.3742 24.7379 41.4693 24.1684 38.5819 24.4422C35.6945 24.7159 32.9484 25.8212 30.6764 27.624C28.4044 29.4268 26.704 31.8499 25.7812 34.5996C24.8584 37.3492 24.7528 40.3075 25.4773 43.116C25.5609 43.4368 25.7687 43.7112 26.0547 43.8789C26.3408 44.0466 26.6817 44.0938 27.0025 44.0101C27.3234 43.9264 27.5978 43.7187 27.7655 43.4327C27.9332 43.1466 27.9804 42.8057 27.8967 42.4848C27.6306 41.4698 27.4973 40.4246 27.5001 39.3753C27.5165 37.3308 28.0313 35.3212 28.9999 33.5207C29.9685 31.7202 31.3617 30.1832 33.0586 29.0428C34.7555 27.9024 36.705 27.1932 38.738 26.9766C40.771 26.76 42.8262 27.0425 44.7253 27.7997C44.5122 28.5975 44.5289 29.4392 44.7734 30.2279C45.0179 31.0165 45.4802 31.7201 46.1072 32.2575C46.7341 32.7948 47.5001 33.1441 48.3169 33.2651C49.1337 33.3861 49.968 33.2739 50.7238 32.9414C51.8948 34.8824 52.5092 37.1082 52.4998 39.3751C52.7987 40.8731 50.9723 43.8057 53.3142 44.0504Z" fill="#0094FF"/>
</svg>
