<svg width="40" height="40" viewBox="0 0 40 40" fill="none" xmlns="http://www.w3.org/2000/svg">
<path d="M8.25209 32.0831H13.7511C13.138 32.7347 12.7648 33.59 12.7648 34.5261V38.0216H6.54193C6.22271 38.0216 5.96295 37.763 5.96295 37.445V34.1641C5.96295 33.0166 6.98982 32.0831 8.25209 32.0831ZM11.1687 29.0448C12.5796 29.0448 13.2142 27.3341 13.2142 26.1194C13.2142 24.9914 12.2965 24.0738 11.1687 24.0738C10.0408 24.0738 9.12311 24.9914 9.12311 26.1194C9.12311 27.0739 9.62311 29.0448 11.1687 29.0448ZM19.0913 38.0609L20.0009 38.8027L20.9089 38.0611L20.0012 32.9498L19.0913 38.0609ZM18.703 33.1098C18.5934 33.0071 18.4993 32.8892 18.4253 32.7602C18.3279 32.5897 18.2771 32.3396 18.2823 32.083H16.6942C15.2167 32.083 14.0147 33.179 14.0147 34.526V38.2445C14.0147 38.6524 14.3466 38.9843 14.7546 38.9843H18.2458L18.0166 38.7974C17.8408 38.6541 17.7565 38.4268 17.7963 38.2035L18.703 33.1098ZM8.25209 30.8331C6.30061 30.8331 4.71287 32.3274 4.71287 34.1642V35.1642H2.80029V11.5276H8.59686V24.062C8.14451 24.6263 7.87303 25.3416 7.87303 26.1194C7.87303 27.0548 8.12021 28.017 8.59686 28.7818V30.8331H8.25209ZM6.32482 28.2412H5.07482V30.3559H6.32482V28.2412ZM6.32482 24.2744H5.07482V26.3867H6.32482V24.2744ZM6.32482 20.3052H5.07482V22.4199H6.32482V20.3052ZM6.32482 16.336H5.07482V18.4507H6.32482V16.336ZM20.0012 29.0993C21.745 29.0993 22.5293 27.0151 22.5293 25.5352C22.5293 24.1412 21.3952 23.007 20.0012 23.007C18.6072 23.007 17.4731 24.1412 17.4731 25.5352C17.4731 26.9131 18.1594 29.0993 20.0012 29.0993ZM19.5636 32.0831C19.5522 32.0831 19.5422 32.0837 19.5335 32.0848C19.5313 32.1146 19.5311 32.1466 19.5331 32.1719C19.5612 32.2057 19.6006 32.2355 19.6438 32.2548C19.8323 32.3392 19.9621 32.5081 20.0012 32.7015C20.0401 32.5091 20.1688 32.3409 20.3558 32.2561C20.3997 32.2362 20.4404 32.2054 20.4693 32.1715C20.4712 32.1463 20.4708 32.1145 20.4686 32.085C20.4594 32.0838 20.4487 32.0831 20.4365 32.0831H19.5636ZM11.1687 22.8238C10.6987 22.8238 10.2518 22.9233 9.84693 23.1013V7.28876H30.153V23.1003C29.7487 22.923 29.3026 22.8238 28.8337 22.8238C27.0165 22.8238 25.5381 24.3022 25.5381 26.1195C25.5381 28.1437 26.6931 30.2949 28.8337 30.2949C29.3266 30.2949 29.7667 30.1797 30.153 29.9793V30.8331H25.9171C25.4801 30.8331 25.0547 30.9086 24.6487 31.0555C24.2295 30.9117 23.7772 30.8331 23.3057 30.8331H16.6944C16.2229 30.8331 15.7705 30.9117 15.3513 31.0555C14.9453 30.9086 14.52 30.8331 14.0829 30.8331H9.84701V29.978C10.234 30.1791 10.6747 30.2948 11.1687 30.2948C13.3093 30.2948 14.4643 28.1435 14.4643 26.1194C14.4643 24.3022 12.9859 22.8238 11.1687 22.8238ZM24.4287 12.5252H25.6787V10.4105H24.4287V12.5252ZM24.4287 16.4944H25.6787V14.3797H24.4287V16.4944ZM24.4287 20.4612H25.6787V18.3488H24.4287V20.4612ZM19.3762 12.5252H20.6262V10.4105H19.3762V12.5252ZM19.3762 16.4943H20.6262V14.3796H19.3762V16.4943ZM19.3762 20.4611H20.6262V18.3487H19.3762V20.4611ZM16.2231 25.5349C16.2231 26.6087 16.5365 27.7583 17.0614 28.6102C17.7523 29.7316 18.7964 30.3491 20.0012 30.3491C22.4551 30.3491 23.7792 27.8687 23.7792 25.5349C23.7792 23.4516 22.0844 21.7568 20.0012 21.7568C17.918 21.7568 16.2231 23.4516 16.2231 25.5349ZM14.3213 12.5251H15.5713V10.4104H14.3213V12.5251ZM14.3213 16.4942H15.5713V14.3795H14.3213V16.4942ZM14.3213 20.461H15.5713V18.3487H14.3213V20.461ZM26.6399 6.03852V4.12359H13.3602V6.03852H26.6399ZM23.3058 32.0829H21.72C21.7256 32.3389 21.6751 32.5884 21.5776 32.7591C21.5037 32.8881 21.4092 33.0063 21.2992 33.1091L22.2039 38.2036C22.2435 38.4266 22.1593 38.6537 21.9839 38.797L21.7547 38.9841H25.2479C25.6545 38.9841 25.9853 38.6523 25.9853 38.2443V34.5259C25.9853 33.1788 24.7833 32.0829 23.3058 32.0829ZM31.4031 11.5273H37.1997V35.164H35.2895V34.164C35.2895 32.3273 33.7008 30.8329 31.7479 30.8329H31.403V28.7855C31.8812 28.0201 32.1292 27.0562 32.1292 26.1191C32.1292 25.3399 31.8568 24.6235 31.403 24.0588L31.4031 11.5273ZM33.6776 18.4504H34.9276V16.3357H33.6776V18.4504ZM33.6776 22.4196H34.9276V20.3049H33.6776V22.4196ZM33.6776 26.3864H34.9276V24.2741H33.6776V26.3864ZM33.6776 30.3555H34.9276V28.2409H33.6776V30.3555ZM26.7881 26.1191C26.7881 27.3338 27.4228 29.0445 28.8337 29.0445C30.3792 29.0445 30.8793 27.0735 30.8793 26.1191C30.8793 24.9911 29.9616 24.0734 28.8337 24.0734C27.7057 24.0734 26.7881 24.9911 26.7881 26.1191ZM28.509 1.01562H11.4908V2.87384H28.509V1.01562ZM31.7479 32.0831H26.2489C26.8619 32.7347 27.2351 33.59 27.2351 34.5261V38.0216H33.4604C33.7797 38.0216 34.0395 37.763 34.0395 37.445V34.1641C34.0395 33.0166 33.0115 32.0831 31.7479 32.0831Z" fill="url(#paint0_linear_42_2038)"/>
<defs>
<linearGradient id="paint0_linear_42_2038" x1="20" y1="1.01562" x2="20" y2="38.9843" gradientUnits="userSpaceOnUse">
<stop stop-color="#6DCAFF"/>
<stop offset="1" stop-color="#0094FF"/>
</linearGradient>
</defs>
</svg>
