<svg width="40" height="40" viewBox="0 0 40 40" fill="none" xmlns="http://www.w3.org/2000/svg">
<path fill-rule="evenodd" clip-rule="evenodd" d="M35.1179 33.4687V12.4577H32.1468V33.4687H35.1179ZM19.8359 6.71943L9.29131 16.2616C9.20147 16.3429 9.08897 16.3827 8.97647 16.3827C8.84912 16.3827 8.72178 16.3304 8.62881 16.2288C8.45537 16.0366 8.47022 15.7406 8.6624 15.5663L19.5109 5.74911C19.6843 5.5913 19.9484 5.58739 20.1273 5.73896L25.921 10.6327L33.0663 2.13818H30.6585C30.3999 2.13818 30.1898 1.92802 30.1898 1.66943C30.1898 1.41083 30.3999 1.20068 30.6585 1.20068H34.0718C34.3335 1.20068 34.5405 1.41083 34.5405 1.66943V5.7288C34.5405 5.98739 34.3335 6.19755 34.0718 6.19755C33.8132 6.19755 33.6062 5.98739 33.6062 5.7288V2.95536L26.3366 11.596C26.2562 11.6913 26.1413 11.7507 26.0179 11.7616C25.8929 11.7718 25.7702 11.7327 25.6749 11.6523L19.8359 6.71943ZM8.11631 22.5531C7.74522 21.8726 7.45614 21.1562 7.25068 20.4077C6.84286 20.2687 6.44755 20.3241 5.99677 20.5859C6.36005 21.3273 6.83818 21.9866 7.41864 22.5531H8.11631ZM7.96474 19.3195C9.1413 19.3077 10.1851 19.5804 11.1366 20.1484C11.0421 21.046 10.7968 21.8366 10.3921 22.5531H9.19989C8.57646 21.5515 8.16943 20.4874 7.96474 19.3195ZM7.69677 24.1405H10.1905V23.4906H7.69677V24.1405ZM11.6171 36.828V32.1312C11.6171 31.1421 13.3945 30.721 14.9655 30.5429C14.3421 28.8249 12.7234 27.2406 11.2796 25.828C11.0155 25.5687 10.7632 25.3226 10.521 25.0788H7.3663C7.12411 25.3226 6.87177 25.5695 6.60771 25.828C4.75614 27.6398 2.65771 29.6929 2.65771 31.9624C2.65771 34.9265 5.47725 37.3382 8.94366 37.3382C9.86787 37.3382 10.7859 37.1624 11.6171 36.828ZM10.8327 32.5265C10.8327 33.328 10.2296 34.0046 9.41241 34.2054V35.0374C9.41241 35.296 9.20225 35.5062 8.94366 35.5062C8.68506 35.5062 8.47491 35.296 8.47491 35.0374V34.2218C7.83662 34.089 7.30458 33.6671 7.08505 33.089C6.99364 32.8468 7.11552 32.5765 7.35771 32.4843C7.59989 32.3929 7.87021 32.5148 7.96239 32.757C8.08974 33.0937 8.47802 33.3296 8.90693 33.3296C9.44286 33.3296 9.89522 32.9616 9.89522 32.5265C9.89522 32.4593 9.88428 32.1171 9.67959 32.0351L8.78036 31.6773L8.04834 31.4265C7.44522 31.2195 7.05458 30.6398 7.05458 29.9484C7.05458 29.1468 7.65772 28.4702 8.47491 28.2695V27.4382C8.47491 27.1788 8.68506 26.9695 8.94366 26.9695C9.20225 26.9695 9.41241 27.1788 9.41241 27.4382V28.2538C10.0507 28.3866 10.5827 28.8085 10.8023 29.3866C10.8937 29.6288 10.7718 29.8991 10.5296 29.9913C10.2874 30.0827 10.0171 29.9609 9.9249 29.7187C9.79756 29.382 9.40927 29.1468 8.98036 29.1468C8.44443 29.1468 7.99208 29.514 7.99208 29.9491C7.99208 30.1749 8.0874 30.4491 8.35225 30.5398L9.09599 30.7945C9.10302 30.7968 9.11006 30.7999 9.11709 30.8023L10.0273 31.1648C10.5312 31.3656 10.8327 31.8757 10.8327 32.5265ZM17.2726 36.3538C17.6937 36.3538 20.4945 36.328 21.9898 35.6702V37.0952C21.7484 37.4007 20.0241 37.9195 17.2726 37.9195C14.521 37.9195 12.796 37.4007 12.5546 37.0952V35.6702C14.0499 36.3288 16.8515 36.3538 17.2726 36.3538ZM17.2726 33.8515C17.6937 33.8515 20.4945 33.8257 21.9898 33.1679V34.5913C21.7523 34.8968 20.028 35.4171 17.2726 35.4171C14.5163 35.4171 12.7921 34.8968 12.5546 34.5913V33.1679C14.0499 33.8257 16.8515 33.8515 17.2726 33.8515ZM17.2726 31.3484C19.896 31.3484 21.5882 31.8218 21.9484 32.1312C21.5882 32.4405 19.896 32.914 17.2726 32.914C14.6484 32.914 12.957 32.4405 12.5968 32.1312C12.957 31.8218 14.6484 31.3484 17.2726 31.3484ZM14.2077 27.5374C13.5046 26.6929 12.6968 25.9023 11.9351 25.157C11.6515 24.8796 11.3835 24.6163 11.128 24.3585V23.6773H14.2077V27.5374ZM21.178 30.8218V16.0437H18.2062V30.4343C19.0226 30.4726 20.2023 30.5702 21.178 30.8218ZM28.1484 33.4687V19.8585H25.1765V33.4687H28.1484Z" fill="url(#paint0_linear_42_2032)"/>
<defs>
<linearGradient id="paint0_linear_42_2032" x1="18.8878" y1="1.20068" x2="18.8878" y2="37.9195" gradientUnits="userSpaceOnUse">
<stop stop-color="#6DCAFF"/>
<stop offset="1" stop-color="#0094FF"/>
</linearGradient>
</defs>
</svg>
