<svg width="40" height="40" viewBox="0 0 40 40" fill="none" xmlns="http://www.w3.org/2000/svg">
<g clip-path="url(#clip0_42_2017)">
<mask id="mask0_42_2017" style="mask-type:luminance" maskUnits="userSpaceOnUse" x="0" y="0" width="40" height="40">
<path d="M40 0H0V40H40V0Z" fill="white"/>
</mask>
<g mask="url(#mask0_42_2017)">
<path d="M28.796 5.26401C28.7321 5.22753 28.6524 5.22667 28.5878 5.26401L27.9844 5.61253V15.6117H30.7661C31.567 15.6117 32.2184 16.2632 32.2184 17.0639V21.1618H36.874C36.9338 21.1618 36.9935 21.1643 37.0524 21.1685V10.0308L28.796 5.26401ZM35.8077 13.3296C35.8077 14.1304 35.1562 14.7818 34.3554 14.7818H32.6956C31.8948 14.7818 31.2434 14.1303 31.2434 13.3296V11.6698C31.2434 10.8689 31.8949 10.2175 32.6956 10.2175H34.3554C35.1563 10.2175 35.8077 10.869 35.8077 11.6698V13.3296Z" fill="url(#paint0_linear_42_2017)"/>
<path d="M39.2948 8.81084C39.2948 8.92037 39.2666 9.02498 39.2118 9.12123C39.04 9.41834 38.6583 9.52037 38.3612 9.34865L37.996 9.13873C37.9894 9.13459 37.9828 9.13045 37.9761 9.12631L29.4167 4.18514C28.9753 3.93123 28.4284 3.92787 27.9844 4.17521V2.73779L28.1736 2.62904C28.4931 2.44396 28.8906 2.44396 29.211 2.62904L38.9835 8.27053C39.1753 8.38178 39.2948 8.58842 39.2948 8.81084Z" fill="url(#paint1_linear_42_2017)"/>
<path d="M30.9736 21.1618H27.9844V16.8564H30.7661C30.8806 16.8564 30.9736 16.9494 30.9736 17.0639V21.1618Z" fill="url(#paint2_linear_42_2017)"/>
<path d="M34.563 11.6699V13.3296C34.563 13.4442 34.4701 13.5371 34.3555 13.5371H32.6958C32.5812 13.5371 32.4883 13.4442 32.4883 13.3296V11.6699C32.4883 11.5553 32.5812 11.4624 32.6958 11.4624H34.3555C34.4701 11.4625 34.563 11.5553 34.563 11.6699Z" fill="url(#paint3_linear_42_2017)"/>
<path d="M24.8726 0H19.0635C18.0336 0 17.1963 0.837344 17.1963 1.86719V10.4033C18.1141 12.1701 18.578 14.0141 18.578 15.9029C18.578 16.7427 18.4295 17.5236 18.1365 18.2241C18.0153 18.5112 18.0767 18.8373 18.2909 19.0564C18.7713 19.5469 19.0361 20.1087 19.0361 20.6381C19.0361 20.8282 19.0063 21.0024 18.9474 21.1618H26.7399V1.86719C26.7399 0.837344 25.9025 0 24.8726 0ZM21.1381 15.1452C21.1381 15.4888 20.8593 15.7677 20.5157 15.7677C20.1721 15.7677 19.8933 15.4888 19.8933 15.1452V13.9004C19.8933 13.5568 20.1721 13.278 20.5157 13.278C20.8593 13.278 21.1381 13.5568 21.1381 13.9004V15.1452ZM21.1381 11.4108C21.1381 11.7544 20.8593 12.0332 20.5157 12.0332C20.1721 12.0332 19.8933 11.7544 19.8933 11.4108V10.1659C19.8933 9.82234 20.1721 9.54352 20.5157 9.54352C20.8593 9.54352 21.1381 9.82234 21.1381 10.1659V11.4108ZM21.1381 7.67633C21.1381 8.01992 20.8593 8.29875 20.5157 8.29875C20.1721 8.29875 19.8933 8.01992 19.8933 7.67633V6.43156C19.8933 6.08797 20.1721 5.80914 20.5157 5.80914C20.8593 5.80914 21.1381 6.08797 21.1381 6.43156V7.67633ZM21.1381 3.94187C21.1381 4.28547 20.8593 4.5643 20.5157 4.5643C20.1721 4.5643 19.8933 4.28547 19.8933 3.94187V2.69711C19.8933 2.35352 20.1721 2.07469 20.5157 2.07469C20.8593 2.07469 21.1381 2.35352 21.1381 2.69711V3.94187ZM24.0427 15.1452C24.0427 15.4888 23.7639 15.7677 23.4203 15.7677C23.0767 15.7677 22.7979 15.4888 22.7979 15.1452V13.9004C22.7979 13.5568 23.0767 13.278 23.4203 13.278C23.7639 13.278 24.0427 13.5568 24.0427 13.9004V15.1452ZM24.0427 11.4108C24.0427 11.7544 23.7639 12.0332 23.4203 12.0332C23.0767 12.0332 22.7979 11.7544 22.7979 11.4108V10.1659C22.7979 9.82234 23.0767 9.54352 23.4203 9.54352C23.7639 9.54352 24.0427 9.82234 24.0427 10.1659V11.4108ZM24.0427 7.67633C24.0427 8.01992 23.7639 8.29875 23.4203 8.29875C23.0767 8.29875 22.7979 8.01992 22.7979 7.67633V6.43156C22.7979 6.08797 23.0767 5.80914 23.4203 5.80914C23.7639 5.80914 24.0427 6.08797 24.0427 6.43156V7.67633ZM24.0427 3.94187C24.0427 4.28547 23.7639 4.5643 23.4203 4.5643C23.0767 4.5643 22.7979 4.28547 22.7979 3.94187V2.69711C22.7979 2.35352 23.0767 2.07469 23.4203 2.07469C23.7639 2.07469 24.0427 2.35352 24.0427 2.69711V3.94187Z" fill="url(#paint4_linear_42_2017)"/>
<path d="M35.3958 24.9047L31.2946 29.0059C31.2829 28.9935 31.2714 28.9819 31.2589 28.9695C30.6124 28.3222 29.7526 27.9653 28.8364 27.9653H23.9336C23.7178 27.9653 23.5111 27.8998 23.3369 27.7777L23.1112 27.6184C21.6 26.5545 19.8241 25.9919 17.9759 25.9919H15.3527C13.3884 25.9919 11.4514 26.6533 9.89878 27.8541L9.70042 28.0068C9.51949 28.1462 9.29378 28.2234 9.06558 28.2234H6.55261C6.28121 27.2665 5.3991 26.5636 4.35675 26.5636H2.95511L2.13019 23.7345C2.03808 23.4184 2.09785 23.0855 2.29535 22.8216C2.49371 22.5577 2.79574 22.4067 3.12605 22.4067H36.8738C37.2041 22.4067 37.5061 22.5577 37.7045 22.8216C37.902 23.0855 37.9618 23.4183 37.8696 23.7345L37.8207 23.903C36.9427 23.9023 36.0647 24.2366 35.3958 24.9047Z" fill="url(#paint5_linear_42_2017)"/>
<path d="M17.4012 19.9277C16.8353 19.3501 16.6725 18.4929 16.9879 17.7426C17.2161 17.1965 17.3323 16.5766 17.3323 15.9028C17.3323 13.3667 16.3589 9.58321 11.7547 5.89111H6.7407C2.13656 9.58321 1.16312 13.3667 1.16312 15.9028C1.16312 16.5766 1.27929 17.1965 1.50836 17.7443C1.82289 18.4928 1.66023 19.35 1.09343 19.9276C0.80711 20.2206 0.705078 20.4861 0.705078 20.638C0.705078 20.8986 1.36234 21.1617 2.83203 21.1617H15.6636C17.1332 21.1617 17.7905 20.8986 17.7905 20.638C17.7904 20.4862 17.6883 20.2206 17.4012 19.9277ZM9.87015 17.2455V17.5965C9.87015 17.9409 9.59132 18.2189 9.24773 18.2189C8.90414 18.2189 8.62531 17.9409 8.62531 17.5965V17.2497C8.30828 17.1509 8.01703 16.9758 7.77468 16.7335C7.51742 16.4754 7.3307 16.1534 7.23695 15.8015C7.14734 15.4696 7.34398 15.1285 7.67593 15.0389C8.00789 14.95 8.34984 15.1468 8.43859 15.4787C8.47679 15.6198 8.55148 15.7493 8.65523 15.853C8.81789 16.0157 9.03695 16.1028 9.26515 16.0979C9.71742 16.0896 10.0859 15.6987 10.0859 15.2282C10.0859 15.0937 10.0453 14.9651 9.96812 14.8547C9.89179 14.746 9.7839 14.6639 9.65695 14.6174L8.41132 14.1643C7.66609 13.8929 7.16484 13.1784 7.16484 12.385V12.3743C7.16484 11.4357 7.78226 10.6282 8.62539 10.356V10.005C8.62539 9.66134 8.90421 9.38251 9.24781 9.38251C9.5914 9.38251 9.87023 9.66134 9.87023 10.005V10.3552C10.188 10.4548 10.4818 10.6299 10.72 10.8681C10.9789 11.127 11.1648 11.449 11.2586 11.8009C11.3474 12.1329 11.1498 12.4739 10.8179 12.5627C10.4859 12.6515 10.1448 12.454 10.0561 12.1221C10.0187 11.9818 9.94406 11.8524 9.83953 11.7486C9.67773 11.586 9.45781 11.4989 9.23039 11.5038C8.77812 11.5129 8.40968 11.9038 8.40968 12.3743V12.3851C8.40968 12.6565 8.58148 12.9013 8.83625 12.9943L10.0843 13.4482C10.452 13.5835 10.764 13.8225 10.9872 14.1412C11.2122 14.4624 11.3308 14.8375 11.3308 15.2283C11.3307 16.1667 10.7132 16.9742 9.87015 17.2455Z" fill="url(#paint6_linear_42_2017)"/>
<path d="M11.7031 4.64648H6.79361C6.03845 3.81328 4.44173 1.84398 5.31642 0.969297C5.57783 0.707891 6.08572 0.775937 6.44009 0.913672C7.03431 1.14523 7.69986 1.00078 8.13556 0.545234C8.43845 0.229063 8.9065 0 9.24837 0C9.59033 0 10.0582 0.229063 10.3604 0.545234C10.7968 1.00086 11.4625 1.14523 12.0558 0.913672C12.411 0.775937 12.9189 0.707891 13.1803 0.968437C14.055 1.84398 12.4583 3.81328 11.7031 4.64648Z" fill="url(#paint7_linear_42_2017)"/>
<path d="M39.3616 28.8697L31.6521 36.5785C30.516 37.7146 29.0048 38.3403 27.3982 38.3403H6.63965V29.4681H9.06622C9.56833 29.4681 10.0637 29.2988 10.4604 28.9926L10.6604 28.839C11.9965 27.8058 13.6629 27.2365 15.3534 27.2365H17.9766C19.5666 27.2365 21.0952 27.7204 22.3948 28.6349L22.6198 28.7942C23.0065 29.0664 23.4604 29.21 23.9343 29.21H28.8372C29.4198 29.21 29.9675 29.4365 30.3791 29.849C30.7916 30.2606 31.0181 30.8083 31.0181 31.3909C31.0181 32.5942 30.0397 33.5726 28.8372 33.5726H21.453C21.1086 33.5726 20.8306 33.8515 20.8306 34.1951C20.8306 34.5387 21.1086 34.8175 21.453 34.8175H28.8372C30.726 34.8175 32.2629 33.2805 32.2629 31.3909C32.2629 30.9279 32.1716 30.4789 31.9973 30.064L36.277 25.7843C37.1277 24.9345 38.5111 24.9345 39.3617 25.7843C40.2123 26.6349 40.2123 28.0183 39.3616 28.8697Z" fill="url(#paint8_linear_42_2017)"/>
<path d="M4.35687 27.8081H0.2075C0.0929687 27.8081 0 27.9011 0 28.0156V39.7924C0 39.9069 0.0929687 39.9998 0.2075 39.9998H4.35687C4.92867 39.9998 5.39422 39.5343 5.39422 38.9625V28.8455C5.39422 28.2737 4.92867 27.8081 4.35687 27.8081ZM3.31953 37.0164C3.31953 37.36 3.0407 37.6388 2.69711 37.6388C2.35352 37.6388 2.07469 37.36 2.07469 37.0164V35.7716C2.07469 35.4272 2.35352 35.1491 2.69711 35.1491C3.0407 35.1491 3.31953 35.4271 3.31953 35.7716V37.0164Z" fill="url(#paint9_linear_42_2017)"/>
</g>
</g>
<defs>
<linearGradient id="paint0_linear_42_2017" x1="32.5184" y1="5.23633" x2="32.5184" y2="21.1685" gradientUnits="userSpaceOnUse">
<stop stop-color="#6DCAFF"/>
<stop offset="1" stop-color="#0094FF"/>
</linearGradient>
<linearGradient id="paint1_linear_42_2017" x1="33.6396" y1="2.49023" x2="33.6396" y2="9.43205" gradientUnits="userSpaceOnUse">
<stop stop-color="#6DCAFF"/>
<stop offset="1" stop-color="#0094FF"/>
</linearGradient>
<linearGradient id="paint2_linear_42_2017" x1="29.479" y1="16.8564" x2="29.479" y2="21.1618" gradientUnits="userSpaceOnUse">
<stop stop-color="#6DCAFF"/>
<stop offset="1" stop-color="#0094FF"/>
</linearGradient>
<linearGradient id="paint3_linear_42_2017" x1="33.5256" y1="11.4624" x2="33.5256" y2="13.5371" gradientUnits="userSpaceOnUse">
<stop stop-color="#6DCAFF"/>
<stop offset="1" stop-color="#0094FF"/>
</linearGradient>
<linearGradient id="paint4_linear_42_2017" x1="21.9681" y1="0" x2="21.9681" y2="21.1618" gradientUnits="userSpaceOnUse">
<stop stop-color="#6DCAFF"/>
<stop offset="1" stop-color="#0094FF"/>
</linearGradient>
<linearGradient id="paint5_linear_42_2017" x1="19.9999" y1="22.4067" x2="19.9999" y2="29.0059" gradientUnits="userSpaceOnUse">
<stop stop-color="#6DCAFF"/>
<stop offset="1" stop-color="#0094FF"/>
</linearGradient>
<linearGradient id="paint6_linear_42_2017" x1="9.24781" y1="5.89111" x2="9.24781" y2="21.1617" gradientUnits="userSpaceOnUse">
<stop stop-color="#6DCAFF"/>
<stop offset="1" stop-color="#0094FF"/>
</linearGradient>
<linearGradient id="paint7_linear_42_2017" x1="9.24838" y1="0" x2="9.24838" y2="4.64648" gradientUnits="userSpaceOnUse">
<stop stop-color="#6DCAFF"/>
<stop offset="1" stop-color="#0094FF"/>
</linearGradient>
<linearGradient id="paint8_linear_42_2017" x1="23.3197" y1="25.147" x2="23.3197" y2="38.3403" gradientUnits="userSpaceOnUse">
<stop stop-color="#6DCAFF"/>
<stop offset="1" stop-color="#0094FF"/>
</linearGradient>
<linearGradient id="paint9_linear_42_2017" x1="2.69711" y1="27.8081" x2="2.69711" y2="39.9998" gradientUnits="userSpaceOnUse">
<stop stop-color="#6DCAFF"/>
<stop offset="1" stop-color="#0094FF"/>
</linearGradient>
<clipPath id="clip0_42_2017">
<rect width="40" height="40" fill="white"/>
</clipPath>
</defs>
</svg>
