<svg width="40" height="40" viewBox="0 0 40 40" fill="none" xmlns="http://www.w3.org/2000/svg">
<path d="M29.918 7.99952H4.09133C2.18 7.99952 0.625 9.55553 0.625 11.4681V37.5197C0.625 37.7319 0.7675 37.9176 0.9725 37.9725C1.01281 37.9833 1.05352 37.9885 1.09375 37.9885C1.2582 37.9885 1.41453 37.9017 1.49977 37.754C3.47117 34.3367 6.1918 32.745 10.0615 32.745H29.918C31.8306 32.745 33.3866 31.189 33.3866 29.2764V11.4681C33.3866 9.55553 31.8306 7.99952 29.918 7.99952ZM10.3826 27.2099C10.3826 27.4688 10.1727 27.6787 9.91383 27.6787H6.30773C6.04891 27.6787 5.83898 27.4688 5.83898 27.2099V19.3482C5.83898 19.0893 6.04891 18.8794 6.30773 18.8794H9.91383C10.1727 18.8794 10.3826 19.0893 10.3826 19.3482V27.2099ZM16.3141 27.2099C16.3141 27.4688 16.1042 27.6787 15.8454 27.6787H12.237C11.9781 27.6787 11.7682 27.4688 11.7682 27.2099V15.1266C11.7682 14.8678 11.9781 14.6578 12.237 14.6578H15.8454C16.1042 14.6578 16.3141 14.8678 16.3141 15.1266V27.2099ZM22.2434 27.2099C22.2434 27.4688 22.0335 27.6787 21.7747 27.6787H18.1663C17.9074 27.6787 17.6975 27.4688 17.6975 27.2099V17.7563C17.6975 17.4974 17.9074 17.2875 18.1663 17.2875H21.7747C22.0335 17.2875 22.2434 17.4974 22.2434 17.7563V27.2099ZM28.1728 27.2099C28.1728 27.4688 27.9629 27.6787 27.7041 27.6787H24.0956C23.8368 27.6787 23.6269 27.4688 23.6269 27.2099V13.5347C23.6269 13.2759 23.8368 13.066 24.0956 13.066H27.7041C27.9629 13.066 28.1728 13.2759 28.1728 13.5347V27.2099ZM39.375 5.47975V23.2881C39.375 25.2006 37.819 26.7567 35.9065 26.7567H35.2617V11.4681C35.2617 8.52163 32.8645 6.12452 29.9181 6.12452H6.61328V5.47983C6.61328 3.56725 8.1693 2.01123 10.0819 2.01123H35.9064C37.8189 2.01123 39.375 3.56717 39.375 5.47975Z" fill="url(#paint0_linear_42_2036)"/>
<defs>
<linearGradient id="paint0_linear_42_2036" x1="20" y1="2.01123" x2="20" y2="37.9885" gradientUnits="userSpaceOnUse">
<stop stop-color="#6DCAFF"/>
<stop offset="1" stop-color="#0094FF"/>
</linearGradient>
</defs>
</svg>
