<svg width="40" height="40" viewBox="0 0 40 40" fill="none" xmlns="http://www.w3.org/2000/svg">
<path fill-rule="evenodd" clip-rule="evenodd" d="M6.21687 38.75H7.49031V36.0709C7.49054 35.7188 7.63054 35.3811 7.87956 35.1321C8.12859 34.883 8.46627 34.743 8.81844 34.7428H10.0899V11.4029L6.57594 9.19195C6.54047 9.16959 6.49966 9.15716 6.45776 9.15594C6.41585 9.15472 6.37438 9.16476 6.33768 9.18502C6.30098 9.20528 6.27038 9.23501 6.24907 9.27112C6.22777 9.30723 6.21654 9.34839 6.21656 9.39031L6.21687 38.75ZM38.75 35.6551C38.75 39.7816 23.8062 39.7816 23.8062 35.6551C23.8126 33.6776 24.6026 31.7833 26.0032 30.3872C27.4037 28.9912 29.3006 28.2073 31.2781 28.2073C33.2556 28.2073 35.1524 28.9912 36.553 30.3872C37.9536 31.7833 38.7436 33.6776 38.75 35.6551ZM27.8249 22.7399C27.8249 23.4229 28.0274 24.0905 28.4069 24.6584C28.7863 25.2262 29.3256 25.6688 29.9566 25.9302C30.5876 26.1916 31.2819 26.2599 31.9517 26.1267C32.6216 25.9935 33.2368 25.6646 33.7198 25.1817C34.2027 24.6987 34.5316 24.0834 34.6648 23.4136C34.7981 22.7438 34.7297 22.0494 34.4683 21.4185C34.207 20.7875 33.7644 20.2482 33.1965 19.8688C32.6286 19.4893 31.961 19.2868 31.278 19.2868C30.3622 19.2868 29.4839 19.6506 28.8363 20.2982C28.1887 20.9458 27.8249 21.8241 27.8249 22.7399ZM37.8815 1.25H24.7891C24.5589 1.25045 24.3382 1.34211 24.1755 1.50489C24.0127 1.66767 23.9211 1.88832 23.9206 2.11852V10.4087C23.9211 10.6389 24.0127 10.8595 24.1755 11.0223C24.3382 11.1851 24.5589 11.2767 24.7891 11.2772H29.9349C29.9349 11.2772 30.0056 14.6926 34.2098 15.218C34.2098 15.218 32.896 13.7415 33.4544 11.2772H37.8817C38.1119 11.2767 38.3325 11.185 38.4952 11.0222C38.6579 10.8594 38.7495 10.6388 38.75 10.4087V2.11852C38.7495 1.88831 38.6579 1.66766 38.4951 1.50488C38.3323 1.3421 38.1117 1.25045 37.8815 1.25ZM26.7102 4.26219C26.5651 4.26219 26.426 4.20457 26.3235 4.10201C26.2209 3.99945 26.1633 3.86035 26.1633 3.71531C26.1633 3.57027 26.2209 3.43117 26.3235 3.32861C26.426 3.22605 26.5651 3.16844 26.7102 3.16844H35.9602C36.1052 3.16844 36.2443 3.22605 36.3469 3.32861C36.4494 3.43117 36.507 3.57027 36.507 3.71531C36.507 3.86035 36.4494 3.99945 36.3469 4.10201C36.2443 4.20457 36.1052 4.26219 35.9602 4.26219H26.7102ZM26.7102 9.35875C26.5651 9.35875 26.426 9.30113 26.3235 9.19857C26.2209 9.09601 26.1633 8.95692 26.1633 8.81187C26.1633 8.66683 26.2209 8.52774 26.3235 8.42518C26.426 8.32262 26.5651 8.265 26.7102 8.265H35.9602C36.1052 8.265 36.2443 8.32262 36.3469 8.42518C36.4494 8.52774 36.507 8.66683 36.507 8.81187C36.507 8.95692 36.4494 9.09601 36.3469 9.19857C36.2443 9.30113 36.1052 9.35875 35.9602 9.35875H26.7102ZM26.7102 6.81047C26.6383 6.81047 26.5672 6.79632 26.5009 6.76884C26.4345 6.74136 26.3742 6.70108 26.3235 6.65029C26.2727 6.59951 26.2324 6.53922 26.2049 6.47287C26.1774 6.40652 26.1633 6.33541 26.1633 6.26359C26.1633 6.19178 26.1774 6.12066 26.2049 6.05431C26.2324 5.98796 26.2727 5.92768 26.3235 5.87689C26.3742 5.82611 26.4345 5.78583 26.5009 5.75835C26.5672 5.73086 26.6383 5.71672 26.7102 5.71672H35.9602C36.032 5.71672 36.1031 5.73086 36.1694 5.75835C36.2358 5.78583 36.2961 5.82611 36.3469 5.87689C36.3976 5.92768 36.4379 5.98796 36.4654 6.05431C36.4929 6.12066 36.507 6.19178 36.507 6.26359C36.507 6.33541 36.4929 6.40652 36.4654 6.47287C36.4379 6.53922 36.3976 6.59951 36.3469 6.65029C36.2961 6.70108 36.2358 6.74136 36.1694 6.76884C36.1031 6.79632 36.032 6.81047 35.9602 6.81047H26.7102ZM13.2993 12.5938H23.3696V15.0513H13.2993V12.5938ZM13.2993 23.79H23.3696V26.2476H13.2993V23.79ZM13.2993 18.1919H23.3696V20.6495H13.2993V18.1919ZM8.58414 38.75V36.0709C8.58426 36.0088 8.609 35.9493 8.65292 35.9053C8.69685 35.8614 8.75639 35.8367 8.81852 35.8366H22.7182C22.8067 37.2567 23.9291 38.1821 25.1531 38.75H8.58414ZM11.1837 34.7428H14.3392V29.8913C14.3392 29.7462 14.3968 29.6071 14.4994 29.5046C14.602 29.402 14.7411 29.3444 14.8861 29.3444H21.7825C21.9275 29.3444 22.0666 29.402 22.1692 29.5046C22.2718 29.6071 22.3294 29.7462 22.3294 29.8913V34.7428H22.761C22.9812 32.6724 23.9498 30.7537 25.4848 29.347V12.3709H24.7891C24.2688 12.3703 23.7701 12.1634 23.4022 11.7955C23.0344 11.4277 22.8275 10.9289 22.8269 10.4087V9.51281H11.1837V34.7428ZM11.1837 8.41906V5.46289C11.1838 5.40077 11.2085 5.34123 11.2525 5.2973C11.2964 5.25337 11.3559 5.22864 11.418 5.22852H22.8266V8.41906H11.1837ZM21.2357 34.7428H15.433V30.4381H21.2357V34.7428ZM21.3653 4.13484V1.48438C21.3652 1.42225 21.3405 1.36271 21.2965 1.31878C21.2526 1.27486 21.1931 1.25012 21.1309 1.25H15.5377C15.4755 1.25012 15.416 1.27486 15.3721 1.31878C15.3281 1.36271 15.3034 1.42225 15.3033 1.48438V4.13484H21.3653ZM1.48438 38.75H5.12312V14.8203H1.48438C1.42225 14.8204 1.36271 14.8452 1.31878 14.8891C1.27486 14.933 1.25012 14.9926 1.25 15.0547V38.5156C1.25012 38.5777 1.27486 38.6373 1.31878 38.6812C1.36271 38.7251 1.42225 38.7499 1.48438 38.75Z" fill="url(#paint0_linear_42_2034)"/>
<defs>
<linearGradient id="paint0_linear_42_2034" x1="20" y1="1.25" x2="20" y2="38.75" gradientUnits="userSpaceOnUse">
<stop stop-color="#6DCAFF"/>
<stop offset="1" stop-color="#0094FF"/>
</linearGradient>
</defs>
</svg>
